<svg width="57" height="41" viewBox="0 0 57 41" fill="none" xmlns="http://www.w3.org/2000/svg">
<g opacity="0.3">
<path d="M10.7149 16.0074C10.9881 14.9146 11.3524 13.7306 11.7166 12.5467C12.172 11.4539 12.6274 10.2699 13.447 9.35921C14.9041 7.53778 17.0899 6.44492 19.1845 5.89849C20.1863 5.62528 21.1881 5.44314 22.0988 5.35206C23.0095 5.26099 24.0113 5.16992 24.922 5.16992C26.9256 5.16992 28.9291 5.53421 30.8416 5.98956C33.5738 6.62706 36.3059 7.62885 38.7649 8.99492C40.222 9.81456 41.6791 10.9074 42.9541 12.0003C46.9613 15.461 50.3309 20.6521 49.147 27.0271C48.6006 30.1235 46.9613 33.1288 44.6845 35.0413C42.3167 36.9538 39.3113 37.6824 36.7613 36.6806C33.4827 35.4056 31.3881 31.5806 27.8363 31.0342C24.5577 30.5789 21.4613 33.2199 18.2738 33.9485C13.7202 35.0413 7.98272 32.036 7.43629 27.0271C7.34522 26.0253 7.43629 24.9324 7.80058 23.7485C8.07379 22.8378 8.43808 21.9271 8.80236 21.0163C9.53093 19.286 10.2595 17.7378 10.7149 16.0074Z" fill="#E55C87"/>
</g>
<path d="M37.2317 4.04278C37.4603 4.13726 37.6557 4.29745 37.7932 4.50305C37.9308 4.70865 38.0042 4.95043 38.0042 5.19778V11.4478H44.2542C44.5018 11.4473 44.7439 11.5204 44.9498 11.6577C45.1558 11.795 45.3164 11.9904 45.4112 12.2191C45.506 12.4478 45.5307 12.6995 45.4823 12.9423C45.4339 13.185 45.3145 13.408 45.1392 13.5828L40.1392 18.5828C40.0229 18.6988 39.8849 18.7907 39.733 18.8534C39.5812 18.916 39.4185 18.9481 39.2542 18.9478H32.2717L30.4217 20.8003C30.5206 21.1709 30.5329 21.5593 30.4578 21.9354C30.3827 22.3116 30.2221 22.6654 29.9884 22.9696C29.7548 23.2738 29.4543 23.5203 29.1103 23.6899C28.7662 23.8595 28.3878 23.9477 28.0042 23.9478C27.3412 23.9478 26.7053 23.6844 26.2364 23.2155C25.7676 22.7467 25.5042 22.1108 25.5042 21.4478L25.5067 21.3328C25.5239 20.9593 25.6245 20.5945 25.8013 20.2651C25.9781 19.9357 26.2266 19.6502 26.5283 19.4295C26.8301 19.2088 27.1775 19.0586 27.545 18.99C27.9124 18.9213 28.2906 18.9359 28.6517 19.0328L30.5042 17.1803V10.1978C30.5039 10.0335 30.536 9.87081 30.5986 9.71895C30.6613 9.5671 30.7532 9.42907 30.8692 9.31278L35.8692 4.31278C36.0442 4.13807 36.267 4.01917 36.5095 3.97111C36.752 3.92305 37.0034 3.94799 37.2317 4.04278V4.04278ZM38.7367 16.4478L41.2367 13.9478H36.7542C36.4227 13.9478 36.1048 13.8161 35.8703 13.5817C35.6359 13.3472 35.5042 13.0293 35.5042 12.6978V8.21528L33.0042 10.7153V16.4478H38.7367ZM42.8667 19.3878C43.2981 22.5006 42.7408 25.6703 41.2737 28.4495C39.8065 31.2286 37.5036 33.4767 34.69 34.8764C31.8763 36.2762 28.6941 36.7569 25.5925 36.2507C22.491 35.7445 19.6267 34.277 17.4042 32.0553C15.1816 29.8336 13.7129 26.9699 13.2055 23.8685C12.6981 20.7672 13.1776 17.5848 14.5762 14.7706C15.9749 11.9564 18.2221 9.65257 21.0007 8.18435C23.7792 6.71612 26.9487 6.15765 30.0617 6.58778L29.1042 7.54528C28.7079 7.94159 28.4055 8.42169 28.2192 8.95028L28.0042 8.94778C25.5229 8.94814 23.0978 9.687 21.0378 11.0703C18.9777 12.4535 17.376 14.4186 16.4366 16.7152C15.4971 19.0119 15.2625 21.5361 15.7625 23.9666C16.2625 26.397 17.4745 28.6237 19.2442 30.3629C21.014 32.1022 23.2613 33.2755 25.7001 33.7332C28.1388 34.191 30.6586 33.9126 32.9386 32.9334C35.2186 31.9543 37.1556 30.3187 38.5029 28.235C39.8502 26.1513 40.5469 23.7138 40.5042 21.2328C41.0308 21.0465 41.5091 20.745 41.9042 20.3503L42.8642 19.3878H42.8667ZM28.0042 12.6978C26.2736 12.6978 24.5819 13.211 23.143 14.1724C21.704 15.1339 20.5825 16.5004 19.9203 18.0993C19.258 19.6982 19.0847 21.4575 19.4223 23.1548C19.76 24.8522 20.5933 26.4113 21.817 27.635C23.0407 28.8587 24.5998 29.692 26.2972 30.0296C27.9945 30.3673 29.7538 30.194 31.3527 29.5317C32.9515 28.8695 34.3181 27.7479 35.2796 26.309C36.241 24.8701 36.7542 23.1784 36.7542 21.4478H34.2542C34.2542 22.6839 33.8877 23.8923 33.2009 24.9201C32.5141 25.9479 31.538 26.749 30.396 27.222C29.2539 27.6951 27.9973 27.8188 26.7849 27.5777C25.5725 27.3365 24.4589 26.7413 23.5848 25.8672C22.7107 24.9931 22.1155 23.8795 21.8743 22.6671C21.6332 21.4547 21.7569 20.198 22.23 19.056C22.703 17.914 23.5041 16.9379 24.5319 16.2511C25.5597 15.5643 26.7681 15.1978 28.0042 15.1978V12.6978Z" fill="#E55C87"/>
</svg>
