<svg width="1493" height="669" viewBox="0 0 1493 669" fill="none" xmlns="http://www.w3.org/2000/svg">
<mask id="mask0_1462_5074" style="mask-type:alpha" maskUnits="userSpaceOnUse" x="21" y="24" width="1441" height="575">
<path d="M21.9536 24.5518H1461.95V598.552H21.9536V24.5518Z" fill="black"/>
</mask>
<g mask="url(#mask0_1462_5074)">
</g>
<g clip-path="url(#clip0_1462_5074)">
<rect x="0.953613" y="0.551758" width="1492" height="668" rx="23.1342" fill="#F8491D"/>
<g filter="url(#filter0_f_1462_5074)">
<rect x="1346.17" y="-137.833" width="529.336" height="845.43" transform="rotate(25.3129 1346.17 -137.833)" fill="black" fill-opacity="0.3"/>
</g>
<g opacity="0.4">
<path d="M196.3 58.0909H131.833V58.5236C131.833 93.7853 160.605 122.341 195.867 122.341H196.083H196.3H196.516C231.778 122.341 260.55 93.7853 260.55 58.3072V57.8746H196.3V58.0909Z" fill="url(#paint0_linear_1462_5074)" fill-opacity="0.2"/>
</g>
<g opacity="0.4">
<path d="M259.685 56.3597C259.685 21.098 231.13 -7.45751 195.652 -7.45751C195.652 27.8042 224.424 56.3597 259.685 56.3597Z" fill="url(#paint1_linear_1462_5074)" fill-opacity="0.2"/>
<path d="M131.186 56.3597C131.186 21.098 159.957 -7.45751 195.219 -7.45751C195.219 27.8042 166.447 56.3597 131.186 56.3597Z" fill="url(#paint2_linear_1462_5074)" fill-opacity="0.2"/>
</g>
<path opacity="0.4" d="M324.367 -71.4896C359.731 -71.4896 388.4 -42.8208 388.4 -7.45606C388.4 27.9087 359.731 56.5775 324.367 56.5775C289.002 56.5775 260.333 27.9087 260.333 -7.45606C260.333 -42.8208 289.002 -71.4896 324.367 -71.4896Z" fill="url(#paint3_linear_1462_5074)" fill-opacity="0.2"/>
<path opacity="0.4" d="M128.804 57.2253L66.2847 -5.29393L128.588 -67.8132L128.804 57.2253Z" fill="url(#paint4_linear_1462_5074)" fill-opacity="0.2"/>
<path opacity="0.4" d="M4.84717 57.2253L67.3664 -5.29393L4.84717 -67.8132V57.2253Z" fill="url(#paint5_linear_1462_5074)" fill-opacity="0.2"/>
<g opacity="0.4">
<path d="M260.117 58.3061C260.117 93.5679 288.889 122.34 324.15 122.34C324.15 86.8617 295.378 58.3061 260.117 58.3061Z" fill="url(#paint6_linear_1462_5074)" fill-opacity="0.2"/>
<path d="M388.616 58.3061C388.616 93.5679 359.844 122.34 324.583 122.34C324.583 86.8617 353.354 58.3061 388.616 58.3061Z" fill="url(#paint7_linear_1462_5074)" fill-opacity="0.2"/>
<path d="M388.616 186.157C388.616 150.896 359.844 122.124 324.583 122.124C324.583 157.386 353.354 186.157 388.616 186.157Z" fill="url(#paint8_linear_1462_5074)" fill-opacity="0.2"/>
<path d="M260.117 186.157C260.117 150.896 288.889 122.124 324.15 122.124C324.15 157.386 295.378 186.157 260.117 186.157Z" fill="url(#paint9_linear_1462_5074)" fill-opacity="0.2"/>
</g>
<g opacity="0.4">
<path d="M64.5552 58.956C64.5552 94.2178 93.327 122.99 128.589 122.99C128.589 87.7279 100.033 58.956 64.5552 58.956Z" fill="url(#paint10_linear_1462_5074)" fill-opacity="0.2"/>
<path d="M64.9872 58.9562C64.9872 94.2179 36.2153 122.99 0.953613 122.99C0.953613 87.728 29.7255 58.9562 64.9872 58.9562Z" fill="url(#paint11_linear_1462_5074)" fill-opacity="0.2"/>
<path d="M64.5552 123.206C64.7715 158.684 93.327 187.24 128.589 187.24C128.589 151.978 100.033 123.206 64.5552 123.206Z" fill="url(#paint12_linear_1462_5074)" fill-opacity="0.2"/>
<path d="M64.9872 123.206C64.9872 158.684 36.2153 187.24 0.953613 187.24C0.953613 151.978 29.7255 123.206 64.9872 123.206Z" fill="url(#paint13_linear_1462_5074)" fill-opacity="0.2"/>
</g>
</g>
<defs>
<filter id="filter0_f_1462_5074" x="960.528" y="-162" width="888.32" height="1038.91" filterUnits="userSpaceOnUse" color-interpolation-filters="sRGB">
<feFlood flood-opacity="0" result="BackgroundImageFix"/>
<feBlend mode="normal" in="SourceGraphic" in2="BackgroundImageFix" result="shape"/>
<feGaussianBlur stdDeviation="12.0836" result="effect1_foregroundBlur_1462_5074"/>
</filter>
<linearGradient id="paint0_linear_1462_5074" x1="242.02" y1="120.66" x2="164.487" y2="25.8971" gradientUnits="userSpaceOnUse">
<stop stop-color="#983C19"/>
<stop offset="1" stop-color="#9C3C17"/>
</linearGradient>
<linearGradient id="paint1_linear_1462_5074" x1="250.467" y1="54.696" x2="180.626" y2="11.798" gradientUnits="userSpaceOnUse">
<stop stop-color="#983C19"/>
<stop offset="1" stop-color="#9C3C17"/>
</linearGradient>
<linearGradient id="paint2_linear_1462_5074" x1="186.001" y1="54.696" x2="116.159" y2="11.798" gradientUnits="userSpaceOnUse">
<stop stop-color="#983C19"/>
<stop offset="1" stop-color="#9C3C17"/>
</linearGradient>
<linearGradient id="paint3_linear_1462_5074" x1="369.964" y1="53.2387" x2="230.022" y2="-32.4256" gradientUnits="userSpaceOnUse">
<stop stop-color="#983C19"/>
<stop offset="1" stop-color="#9C3C17"/>
</linearGradient>
<linearGradient id="paint4_linear_1462_5074" x1="119.804" y1="53.9655" x2="33.9327" y2="27.6828" gradientUnits="userSpaceOnUse">
<stop stop-color="#983C19"/>
<stop offset="1" stop-color="#9C3C17"/>
</linearGradient>
<linearGradient id="paint5_linear_1462_5074" x1="58.3661" y1="53.9655" x2="-27.5048" y2="27.6828" gradientUnits="userSpaceOnUse">
<stop stop-color="#983C19"/>
<stop offset="1" stop-color="#9C3C17"/>
</linearGradient>
<linearGradient id="paint6_linear_1462_5074" x1="314.932" y1="120.67" x2="244.961" y2="77.8382" gradientUnits="userSpaceOnUse">
<stop stop-color="#983C19"/>
<stop offset="1" stop-color="#9C3C17"/>
</linearGradient>
<linearGradient id="paint7_linear_1462_5074" x1="379.398" y1="120.67" x2="309.427" y2="77.8382" gradientUnits="userSpaceOnUse">
<stop stop-color="#983C19"/>
<stop offset="1" stop-color="#9C3C17"/>
</linearGradient>
<linearGradient id="paint8_linear_1462_5074" x1="379.398" y1="184.488" x2="309.427" y2="141.656" gradientUnits="userSpaceOnUse">
<stop stop-color="#983C19"/>
<stop offset="1" stop-color="#9C3C17"/>
</linearGradient>
<linearGradient id="paint9_linear_1462_5074" x1="314.932" y1="184.488" x2="244.961" y2="141.656" gradientUnits="userSpaceOnUse">
<stop stop-color="#983C19"/>
<stop offset="1" stop-color="#9C3C17"/>
</linearGradient>
<linearGradient id="paint10_linear_1462_5074" x1="119.37" y1="121.32" x2="49.3998" y2="78.4881" gradientUnits="userSpaceOnUse">
<stop stop-color="#983C19"/>
<stop offset="1" stop-color="#9C3C17"/>
</linearGradient>
<linearGradient id="paint11_linear_1462_5074" x1="55.7689" y1="121.32" x2="-14.2018" y2="78.4882" gradientUnits="userSpaceOnUse">
<stop stop-color="#983C19"/>
<stop offset="1" stop-color="#9C3C17"/>
</linearGradient>
<linearGradient id="paint12_linear_1462_5074" x1="119.37" y1="185.57" x2="49.3998" y2="142.738" gradientUnits="userSpaceOnUse">
<stop stop-color="#983C19"/>
<stop offset="1" stop-color="#9C3C17"/>
</linearGradient>
<linearGradient id="paint13_linear_1462_5074" x1="55.7689" y1="185.57" x2="-14.2018" y2="142.738" gradientUnits="userSpaceOnUse">
<stop stop-color="#983C19"/>
<stop offset="1" stop-color="#9C3C17"/>
</linearGradient>
<clipPath id="clip0_1462_5074">
<rect x="0.953613" y="0.551758" width="1492" height="668" rx="23.1342" fill="white"/>
</clipPath>
</defs>
</svg>
