<svg width="57" height="39" viewBox="0 0 57 39" fill="none" xmlns="http://www.w3.org/2000/svg">
<g clip-path="url(#clip0_537_200)">
<path d="M10.5472 22.9345C10.339 21.9865 10.2109 20.9996 10.1308 19.9741C10.0667 18.9485 10.0507 17.8843 10.1148 16.7814C10.1788 15.6784 10.2749 14.5561 10.4191 13.4726C10.5632 12.389 10.7394 11.3248 10.9477 10.3379C11.1559 9.35108 11.3801 8.40293 11.6524 7.5709C11.9087 6.71951 12.213 5.96488 12.5334 5.30698C12.8537 4.64909 13.1901 4.08795 13.5745 3.58487C13.9429 3.08177 14.3433 2.65608 14.7758 2.28843C15.6247 1.57249 16.5857 1.0694 17.6589 0.779155C18.716 0.488909 19.9013 0.372812 21.2147 0.334111C22.5921 0.179314 24.0497 0.159964 25.5392 0.295412C26.8206 0.334111 28.102 0.508259 29.3354 0.817855C30.3765 1.0694 31.4496 1.379 32.5228 1.72729C33.5959 2.07559 34.6691 2.48193 35.7262 2.94632C36.7674 3.41072 37.7764 3.97186 38.7054 4.59105C39.6344 5.22958 40.4674 5.96488 41.204 6.79692C41.9408 7.62895 42.5655 8.57708 43.0621 9.64132C43.5586 10.7056 43.9111 11.8858 44.1192 13.2016C44.2793 14.2659 44.3595 15.3689 44.3274 16.5105C44.3115 17.6521 44.1993 18.8131 43.9911 20.0128C43.7989 21.193 43.5266 22.3928 43.1742 23.5924C42.8379 24.7922 42.4214 25.9724 41.9569 27.1141C41.3483 28.6234 40.6595 30.0359 39.9548 31.2743C39.0258 32.919 38.0327 34.2928 37.0076 35.3958C36.0787 36.4019 35.1336 37.1179 34.1405 37.5049C33.1635 37.7952 32.0743 37.737 30.857 37.3501C30.2484 37.1566 29.6237 36.8664 28.983 36.5568C28.3423 36.2278 27.6856 35.8602 27.0449 35.4732C26.4042 35.0862 25.7635 34.6992 25.1549 34.2928C24.5302 33.9058 23.9376 33.5188 23.3449 33.1705C22.7683 32.8416 22.1917 32.532 21.5991 32.2417C21.0064 31.9709 20.4139 31.7387 19.7891 31.5451C19.1645 31.3904 18.5238 31.255 17.8831 31.0808C17.2424 30.9067 16.5857 30.6938 15.945 30.4229C15.3043 30.1326 14.6957 29.7843 14.1191 29.32C13.5585 28.8556 13.0459 28.2944 12.5814 27.6559C12.1169 27.0173 11.7165 26.3207 11.3801 25.5468C11.0277 24.7341 10.7554 23.8827 10.5472 22.9345Z" fill="#22518B" fill-opacity="0.2"/>
<mask id="mask0_537_200" style="mask-type:alpha" maskUnits="userSpaceOnUse" x="13" y="0" width="35" height="34">
<path d="M47.2581 0.204834H13.8008V33.6621H47.2581V0.204834Z" fill="white"/>
</mask>
<g mask="url(#mask0_537_200)">
<path d="M44.1117 2.25883H40.9654V0.916886C40.9654 0.524344 40.662 0.204834 40.2893 0.204834C39.9165 0.204834 39.6132 0.524344 39.6132 0.916886V2.25883H34.4559V0.916886C34.4559 0.524344 34.1525 0.204834 33.7798 0.204834C33.4072 0.204834 33.1038 0.524344 33.1038 0.916886V2.25883H27.9465V0.916886C27.9465 0.524344 27.6431 0.204834 27.2704 0.204834C26.8977 0.204834 26.5943 0.524344 26.5943 0.916886V2.25883H21.4457V0.916886C21.4457 0.524344 21.1423 0.204834 20.7696 0.204834C20.3969 0.204834 20.0935 0.524344 20.0935 0.916886V2.25883H16.9471C15.2136 2.25883 13.8008 3.74684 13.8008 5.57261V30.3483C13.8008 32.1742 15.2136 33.6621 16.9471 33.6621H44.1204C45.8539 33.6621 47.2668 32.1742 47.2668 30.3483V5.57261C47.2581 3.74684 45.8453 2.25883 44.1117 2.25883ZM16.9471 3.68293H20.0935V5.02488C20.0935 5.41741 20.3969 5.73693 20.7696 5.73693C21.1423 5.73693 21.4457 5.41741 21.4457 5.02488V3.68293H26.6029V5.02488C26.6029 5.41741 26.9063 5.73693 27.2791 5.73693C27.6517 5.73693 27.9551 5.41741 27.9551 5.02488V3.68293H33.1124V5.02488C33.1124 5.41741 33.4158 5.73693 33.7884 5.73693C34.1612 5.73693 34.4646 5.41741 34.4646 5.02488V3.68293H39.6218V5.02488C39.6218 5.41741 39.9252 5.73693 40.2979 5.73693C40.6706 5.73693 40.974 5.41741 40.974 5.02488V3.68293H44.1204C45.1085 3.68293 45.9146 4.53191 45.9146 5.57261V8.21998H15.1529V5.57261C15.1529 4.53191 15.959 3.68293 16.9471 3.68293ZM44.1117 32.238H16.9471C15.959 32.238 15.1529 31.3891 15.1529 30.3483V9.64408H45.9059V30.3483C45.9059 31.3891 45.0998 32.238 44.1117 32.238Z" fill="#22518B"/>
<path d="M25.5286 13.4781H19.5132C19.1405 13.4781 18.8372 13.7977 18.8372 14.1903V19.275C18.8372 19.6675 19.1405 19.987 19.5132 19.987H25.5286C25.9014 19.987 26.2047 19.6675 26.2047 19.275V14.1903C26.2047 13.7977 25.9014 13.4781 25.5286 13.4781ZM24.8525 18.5629H20.1893V14.9023H24.8525V18.5629Z" fill="#22518B"/>
<path d="M30.5291 13.4781C29.9657 13.4781 29.5149 13.9529 29.5149 14.5462C29.5149 15.1396 29.9657 15.6144 30.5291 15.6144C31.0924 15.6144 31.5431 15.1396 31.5431 14.5462C31.5431 13.9529 31.0924 13.4781 30.5291 13.4781Z" fill="#22518B"/>
<path d="M35.8683 13.4781C35.3049 13.4781 34.8542 13.9529 34.8542 14.5462C34.8542 15.1396 35.3049 15.6144 35.8683 15.6144C36.4318 15.6144 36.8825 15.1396 36.8825 14.5462C36.8825 13.9529 36.423 13.4781 35.8683 13.4781Z" fill="#22518B"/>
<path d="M41.2078 13.4781C40.653 13.4781 40.1936 13.9529 40.1936 14.5462C40.1936 15.1396 40.6443 15.6144 41.2078 15.6144C41.7711 15.6144 42.2218 15.1396 42.2218 14.5462C42.2218 13.9529 41.7625 13.4781 41.2078 13.4781Z" fill="#22518B"/>
<path d="M30.5288 17.8513C29.9655 17.8513 29.5146 18.3261 29.5146 18.9195C29.5146 19.5128 29.9655 19.9875 30.5288 19.9875C31.0922 19.9875 31.5429 19.5128 31.5429 18.9195C31.5429 18.3351 31.0922 17.8513 30.5288 17.8513Z" fill="#22518B"/>
<path d="M35.8686 17.8513C35.3052 17.8513 34.8545 18.3261 34.8545 18.9195C34.8545 19.5128 35.3052 19.9875 35.8686 19.9875C36.432 19.9875 36.8827 19.5128 36.8827 18.9195C36.8827 18.3351 36.4233 17.8513 35.8686 17.8513Z" fill="#22518B"/>
<path d="M41.208 17.8513C40.6533 17.8513 40.1938 18.3261 40.1938 18.9195C40.1938 19.5128 40.6445 19.9875 41.208 19.9875C41.7714 19.9875 42.2221 19.5128 42.2221 18.9195C42.2221 18.3351 41.7628 17.8513 41.208 17.8513Z" fill="#22518B"/>
<path d="M30.5288 22.2322C29.9655 22.2322 29.5146 22.7069 29.5146 23.3003C29.5146 23.8936 29.9655 24.3684 30.5288 24.3684C31.0922 24.3684 31.5429 23.8936 31.5429 23.3003C31.5429 22.7069 31.0922 22.2322 30.5288 22.2322Z" fill="#22518B"/>
<path d="M35.8686 22.2322C35.3052 22.2322 34.8545 22.7069 34.8545 23.3003C34.8545 23.8936 35.3052 24.3684 35.8686 24.3684C36.432 24.3684 36.8827 23.8936 36.8827 23.3003C36.8827 22.7069 36.4233 22.2322 35.8686 22.2322Z" fill="#22518B"/>
<path d="M35.8686 26.6052C35.3052 26.6052 34.8545 27.0799 34.8545 27.6733C34.8545 28.2667 35.3052 28.7413 35.8686 28.7413C36.432 28.7413 36.8827 28.2667 36.8827 27.6733C36.8827 27.089 36.4233 26.6052 35.8686 26.6052Z" fill="#22518B"/>
<path d="M41.208 22.2322C40.6533 22.2322 40.1938 22.7069 40.1938 23.3003C40.1938 23.8936 40.6445 24.3684 41.208 24.3684C41.7714 24.3684 42.2221 23.8936 42.2221 23.3003C42.2221 22.7069 41.7628 22.2322 41.208 22.2322Z" fill="#22518B"/>
<path d="M25.1894 22.2322C24.626 22.2322 24.1753 22.7069 24.1753 23.3003C24.1753 23.8936 24.626 24.3684 25.1894 24.3684C25.7528 24.3684 26.2035 23.8936 26.2035 23.3003C26.2035 22.7069 25.7528 22.2322 25.1894 22.2322Z" fill="#22518B"/>
<path d="M19.851 22.2322C19.2876 22.2322 18.8369 22.7069 18.8369 23.3003C18.8369 23.8936 19.2876 24.3684 19.851 24.3684C20.4144 24.3684 20.8651 23.8936 20.8651 23.3003C20.8651 22.7069 20.4144 22.2322 19.851 22.2322Z" fill="#22518B"/>
<path d="M30.5288 26.6052C29.9655 26.6052 29.5146 27.0799 29.5146 27.6733C29.5146 28.2667 29.9655 28.7413 30.5288 28.7413C31.0922 28.7413 31.5429 28.2667 31.5429 27.6733C31.5429 27.089 31.0922 26.6052 30.5288 26.6052Z" fill="#22518B"/>
<path d="M25.1894 26.6052C24.626 26.6052 24.1753 27.0799 24.1753 27.6733C24.1753 28.2667 24.626 28.7413 25.1894 28.7413C25.7528 28.7413 26.2035 28.2667 26.2035 27.6733C26.2035 27.089 25.7528 26.6052 25.1894 26.6052Z" fill="#22518B"/>
<path d="M19.851 26.6052C19.2876 26.6052 18.8369 27.0799 18.8369 27.6733C18.8369 28.2667 19.2876 28.7413 19.851 28.7413C20.4144 28.7413 20.8651 28.2667 20.8651 27.6733C20.8651 27.089 20.4144 26.6052 19.851 26.6052Z" fill="#22518B"/>
</g>
</g>
<defs>
<clipPath id="clip0_537_200">
<rect width="38.25" height="38.25" fill="white" transform="translate(9.25757 0.204834)"/>
</clipPath>
</defs>
</svg>
