<svg width="57" height="39" viewBox="0 0 57 39" fill="none" xmlns="http://www.w3.org/2000/svg">
<g clip-path="url(#clip0_537_252)">
<mask id="mask0_537_252" style="mask-type:alpha" maskUnits="userSpaceOnUse" x="9" y="2" width="39" height="37">
<path d="M47.6668 2.3418H9.5354V38.0132H47.6668V2.3418Z" fill="white"/>
</mask>
<g mask="url(#mask0_537_252)">
<path d="M10.0514 23.9988C9.81942 23.0964 9.67667 22.1571 9.58745 21.1811C9.51608 20.2052 9.49823 19.1922 9.56961 18.1426C9.64098 17.0928 9.74804 16.0248 9.90863 14.9935C10.0692 13.9437 10.2655 12.9492 10.4975 11.9916C10.7294 11.034 10.9792 10.1501 11.2826 9.35821C11.5681 8.5479 11.9071 7.82969 12.264 7.20355C12.6208 6.57742 12.9956 6.04336 13.4238 5.56455C13.8342 5.08574 14.2803 4.68059 14.7621 4.33069C15.7078 3.63089 16.7784 3.15208 17.956 2.89426C19.1337 2.61802 20.4541 2.50753 21.9173 2.4707C23.4518 2.32337 25.0756 2.30495 26.735 2.43387C28.1625 2.4707 29.59 2.63643 30.964 2.93109C32.1237 3.17049 33.3193 3.46515 34.5148 3.79663C35.7102 4.12812 36.9058 4.51485 38.0834 4.95682C39.2433 5.3988 40.3674 5.93286 41.4024 6.52217C42.4373 7.1299 43.3652 7.82969 44.186 8.62157C45.0068 9.41344 45.7026 10.3158 46.2558 11.3287C46.8089 12.3415 47.2014 13.4649 47.4334 14.7172C47.6118 15.73 47.701 16.7798 47.6654 17.8663C47.6476 18.9528 47.5226 20.0578 47.2906 21.1995C47.0765 22.323 46.7733 23.4647 46.3806 24.6065C46.006 25.7483 45.5421 26.8717 45.0246 27.9582C44.3465 29.3946 43.5793 30.739 42.7941 31.9175C41.7592 33.4829 40.6529 34.7904 39.5109 35.8401C38.476 36.7978 37.4233 37.4791 36.3169 37.8474C35.2285 38.1237 34.0152 38.0685 32.659 37.7001C31.981 37.516 31.2852 37.2397 30.5713 36.945C29.8576 36.632 29.1261 36.2821 28.4124 35.9138C27.6985 35.5454 26.9848 35.1771 26.3068 34.7904C25.6109 34.4221 24.9506 34.0538 24.2905 33.7223C23.6481 33.4093 23.0057 33.1145 22.3456 32.8383C21.6853 32.5805 21.0252 32.3595 20.3292 32.1754C19.6333 32.028 18.9196 31.8992 18.2058 31.7334C17.4921 31.5677 16.7605 31.365 16.0468 31.1073C15.333 30.831 14.655 30.4996 14.0126 30.0576C13.3881 29.6156 12.8171 29.0815 12.2997 28.4738C11.7822 27.8661 11.3361 27.2031 10.9614 26.4665C10.5867 25.7115 10.2833 24.8827 10.0514 23.9988Z" fill="#87CC94" fill-opacity="0.3"/>
</g>
<mask id="mask1_537_252" style="mask-type:alpha" maskUnits="userSpaceOnUse" x="9" y="1" width="38" height="36">
<path d="M46.4369 1.11328H9.5354V36.7847H46.4369V1.11328Z" fill="white"/>
</mask>
<g mask="url(#mask1_537_252)">
</g>
<path d="M16.8477 9C18.2799 7.39844 19.9596 6.16797 21.8867 5.30859C23.8138 4.44922 25.8516 4.01302 28 4C28.4167 4 28.8333 4.01953 29.25 4.05859C29.6667 4.09766 30.0833 4.14974 30.5 4.21484V6.75391C30.0833 6.67578 29.6667 6.61719 29.25 6.57812C28.8333 6.53906 28.4167 6.51302 28 6.5C26.6458 6.5 25.3438 6.71484 24.0938 7.14453C22.8438 7.57422 21.6719 8.19271 20.5781 9H16.8477ZM40.2461 21.5C40.3242 21.0833 40.3828 20.6667 40.4219 20.25C40.4609 19.8333 40.487 19.4167 40.5 19C40.5 18.5833 40.4805 18.1667 40.4414 17.75C40.4023 17.3333 40.3372 16.9167 40.2461 16.5H42.7852C42.8503 16.9167 42.9023 17.3333 42.9414 17.75C42.9805 18.1667 43 18.5833 43 19C43 19.4167 42.9805 19.8333 42.9414 20.25C42.9023 20.6667 42.8503 21.0833 42.7852 21.5H40.2461ZM18.0586 26.5C18.6445 27.2812 19.3086 27.9779 20.0508 28.5898C20.793 29.2018 21.5872 29.7292 22.4336 30.1719C23.2799 30.6146 24.1784 30.9401 25.1289 31.1484C26.0794 31.3568 27.0365 31.474 28 31.5C28.4167 31.5 28.8333 31.4805 29.25 31.4414C29.6667 31.4023 30.0833 31.3372 30.5 31.2461V33.7852C30.0833 33.8503 29.6667 33.9023 29.25 33.9414C28.8333 33.9805 28.4167 34 28 34C26.6589 34 25.3568 33.8307 24.0938 33.4922C22.8307 33.1536 21.6393 32.6523 20.5195 31.9883C19.3997 31.3242 18.3711 30.5365 17.4336 29.625C16.4961 28.7135 15.6953 27.6719 15.0312 26.5H18.0586ZM48 1.5V14H33V1.5H48ZM45.5 4H35.5V11.5H45.5V4ZM33 24H48V36.5H33V24ZM35.5 34H45.5V26.5H35.5V34ZM23 24H8V11.5H23V24ZM20.5 14H10.5V21.5H20.5V14Z" fill="#87CC94"/>
</g>
<defs>
<clipPath id="clip0_537_252">
<rect width="39.375" height="38.25" fill="white" transform="translate(8.69507 0.322266)"/>
</clipPath>
</defs>
</svg>
