<svg width="25" height="24" viewBox="0 0 25 24" fill="none" xmlns="http://www.w3.org/2000/svg">
<path d="M21.5 8.00002C22.0304 8.00002 22.5391 8.21074 22.9142 8.58581C23.2893 8.96088 23.5 9.46959 23.5 10V14C23.5 14.5305 23.2893 15.0392 22.9142 15.4142C22.5391 15.7893 22.0304 16 21.5 16H20.438C20.1942 17.9333 19.2533 19.7112 17.7917 21C16.3302 22.2888 14.4486 23 12.5 23V21C14.0913 21 15.6174 20.3679 16.7426 19.2427C17.8679 18.1174 18.5 16.5913 18.5 15V9.00002C18.5 7.40872 17.8679 5.8826 16.7426 4.75738C15.6174 3.63216 14.0913 3.00002 12.5 3.00002C10.9087 3.00002 9.38258 3.63216 8.25736 4.75738C7.13214 5.8826 6.5 7.40872 6.5 9.00002V16H3.5C2.96957 16 2.46086 15.7893 2.08579 15.4142C1.71071 15.0392 1.5 14.5305 1.5 14V10C1.5 9.46959 1.71071 8.96088 2.08579 8.58581C2.46086 8.21074 2.96957 8.00002 3.5 8.00002H4.562C4.80603 6.06692 5.74708 4.2893 7.20857 3.0007C8.67007 1.7121 10.5516 1.0011 12.5 1.0011C14.4484 1.0011 16.3299 1.7121 17.7914 3.0007C19.2529 4.2893 20.194 6.06692 20.438 8.00002H21.5ZM8.26 15.785L9.32 14.089C10.2731 14.6861 11.3754 15.0018 12.5 15C13.6246 15.0018 14.7269 14.6861 15.68 14.089L16.74 15.785C15.4693 16.5812 13.9995 17.0023 12.5 17C11.0005 17.0023 9.53074 16.5812 8.26 15.785Z" fill="#555555"/>
</svg>
