<svg width="57" height="39" viewBox="0 0 57 39" fill="none" xmlns="http://www.w3.org/2000/svg">
<g clip-path="url(#clip0_537_241)">
<g opacity="0.3">
<path d="M53.0116 15.9308C54.3897 17.6957 55.1665 19.707 54.7405 22.3338C53.4376 30.3581 44.2918 35.776 34.9456 36.5353C26.0505 37.2536 16.7043 34.7089 9.53796 30.4402C9.26233 30.276 8.98671 30.1118 8.71109 29.9271C6.48102 28.5111 3.97535 26.8077 2.47194 24.8171C1.89563 24.0577 1.49472 23.3394 1.29426 22.6622C1.09381 22.0054 1.09381 21.3692 1.29426 20.8152C2.42182 17.5111 8.33523 16.0335 11.4924 14.3301C15.0004 12.4215 18.0072 10.2256 20.588 7.51661C23.0436 4.95131 25.9001 2.34497 29.7589 1.21624C33.4673 0.12855 37.9775 0.580043 40.859 2.9196C42.9136 4.60244 44.0663 6.98304 45.7952 8.89162C48.1004 11.4774 51.1072 13.4887 53.0116 15.9308Z" fill="#FDC06A"/>
</g>
<path d="M37.6667 -0.0102539C33.0667 -0.0102539 29.3334 3.72308 29.3334 8.32308C29.3334 12.9231 33.0667 16.6564 37.6667 16.6564C42.2667 16.6564 46 12.9231 46 8.32308C46 3.72308 42.2667 -0.0102539 37.6667 -0.0102539ZM37.6667 13.3231C34.9 13.3231 32.6667 11.0897 32.6667 8.32308C32.6667 5.55641 34.9 3.32308 37.6667 3.32308C40.4334 3.32308 42.6667 5.55641 42.6667 8.32308C42.6667 11.0897 40.4334 13.3231 37.6667 13.3231ZM42.6667 23.3231H39.3334C39.3334 21.3231 38.0834 19.5231 36.2167 18.8231L25.95 14.9897H12.6667V33.3231H22.6667V30.9231L34.3334 34.1564L47.6667 29.9897V28.3231C47.6667 25.5564 45.4334 23.3231 42.6667 23.3231ZM19.3334 29.9897H16V18.3231H19.3334V29.9897ZM34.2834 30.6731L22.6667 27.4897V18.3231H25.35L35.05 21.9397C35.6167 22.1564 36 22.7064 36 23.3231C36 23.3231 32.6667 23.2397 32.1667 23.0731L28.2 21.7564L27.15 24.9231L31.1167 26.2397C31.9667 26.5231 32.85 26.6564 33.75 26.6564H42.6667C43.3167 26.6564 43.9 27.0564 44.1667 27.6064L34.2834 30.6731Z" fill="#FDC06A"/>
</g>
<defs>
<clipPath id="clip0_537_241">
<rect width="54.4773" height="38.25" fill="white" transform="translate(1.14392 0.197266)"/>
</clipPath>
</defs>
</svg>
