<svg width="60" height="60" viewBox="0 0 60 60" fill="none" xmlns="http://www.w3.org/2000/svg">
<rect x="0.5" y="0.5" width="59" height="59" rx="3.5" fill="white" stroke="#DDDDDD"/>
<path d="M28.6003 16.7387L28.5937 16.7294L28.5763 16.7427C21.883 17.4534 16.667 23.1161 16.667 30.0001C16.667 33.0827 17.7137 35.9214 19.471 38.1801V38.1827H19.4737C20.5846 39.6139 21.9759 40.8033 23.5623 41.6782C25.1488 42.553 26.8972 43.0949 28.7003 43.2707C28.763 42.6361 28.9177 41.9721 29.1497 41.3014C26.2732 41.0878 23.5873 39.7828 21.6417 37.6534V37.6521C21.715 37.3321 21.7483 36.9614 21.775 36.6387L21.787 36.4814C21.811 36.1881 21.8337 35.9054 21.871 35.6201C21.9643 34.9174 22.1243 34.4481 22.3737 34.1827C22.6937 33.8401 23.0217 33.7827 23.7083 33.6614L23.8323 33.6387C24.1843 33.5774 24.655 33.4827 25.1083 33.2361C25.5923 32.9721 26.0017 32.5694 26.3097 31.9761C26.6203 31.3787 26.5977 30.7627 26.5123 30.2761C26.4347 29.8864 26.3323 29.502 26.2057 29.1254C26.185 29.0597 26.1646 28.9939 26.1443 28.9281C25.871 28.0374 25.8377 27.6041 26.063 27.2614C26.3083 26.8881 26.6443 26.8027 27.519 26.5761L27.6323 26.5481C28.5203 26.3187 29.723 25.9347 30.419 24.4507C31.1737 22.8441 30.7483 21.0321 30.2857 19.8027C30.1398 19.4166 29.9738 19.0383 29.7883 18.6694C29.859 18.6667 29.9297 18.6667 30.0003 18.6667C32.1408 18.6635 34.238 19.2693 36.047 20.4134C35.791 20.7534 35.4483 21.2014 35.0657 21.6801C34.2257 22.7294 33.279 23.8094 32.6337 24.2934C32.3365 24.5105 32.1109 24.8114 31.9857 25.1574C31.8779 25.472 31.8527 25.809 31.9123 26.1361C32.0057 26.6907 32.3003 27.2107 32.5617 27.6081C32.779 27.9401 33.035 28.2747 33.2497 28.5574L33.3963 28.7481C33.5203 28.9147 33.623 29.0521 33.699 29.1707C33.7377 29.2281 33.7657 29.2747 33.7843 29.3094C33.803 29.3427 33.8097 29.3601 33.811 29.3614C33.8643 29.5081 33.9217 29.7481 33.9883 30.0814L34.0177 30.2227C34.6097 29.9587 35.251 29.7561 35.9377 29.6294C35.8773 29.3038 35.7935 28.983 35.687 28.6694C35.5403 28.2734 35.2217 27.8481 34.9923 27.5441C34.9347 27.4684 34.877 27.3928 34.819 27.3174C34.6145 27.0554 34.4193 26.7864 34.2337 26.5107C34.027 26.1961 33.927 25.9787 33.8937 25.8467C34.7603 25.1774 35.8243 23.9321 36.627 22.9307C37.0217 22.4374 37.3737 21.9774 37.6363 21.6254C39.8355 23.6266 41.1576 26.4136 41.3163 29.3827C42.0897 29.4441 42.7563 29.5454 43.3297 29.6641C43.151 22.4561 37.2523 16.6667 30.0003 16.6667C29.5283 16.6667 29.0603 16.6907 28.6003 16.7387ZM19.915 35.1747C19.1204 33.6253 18.6933 31.9137 18.667 30.1726C18.6406 28.4315 19.0157 26.7078 19.763 25.135C20.5104 23.5623 21.61 22.1828 22.9765 21.1036C24.3431 20.0245 25.9398 19.2746 27.643 18.9121C27.9463 19.4201 28.2046 19.9537 28.415 20.5067C28.8337 21.6201 29.0017 22.7614 28.6097 23.6001C28.3097 24.2374 27.883 24.4174 27.1323 24.6107L26.9163 24.6641C26.207 24.8361 25.0883 25.1054 24.3923 26.1614C23.591 27.3774 23.9857 28.7094 24.2323 29.5147L24.3123 29.7707C24.419 30.1107 24.499 30.3707 24.5417 30.6187C24.5923 30.9081 24.555 31.0134 24.5363 31.0521C24.403 31.3094 24.2697 31.4147 24.1523 31.4787C24.0057 31.5587 23.8137 31.6121 23.483 31.6694C23.4297 31.6801 23.371 31.6894 23.3097 31.6987C22.6923 31.8001 21.711 31.9614 20.9123 32.8187C20.2643 33.5121 20.0283 34.4321 19.915 35.1747ZM30.0097 43.6067C30.0897 42.3201 30.6697 40.7507 31.6537 39.2721C31.9723 38.7307 32.3657 38.1827 32.835 37.6481C34.4169 35.8484 36.5069 34.57 38.8297 33.9814C39.0013 33.9384 39.1489 33.829 39.2399 33.6773C39.331 33.5255 39.358 33.3438 39.315 33.1721C39.272 33.0004 39.1626 32.8528 39.0108 32.7618C38.8591 32.6708 38.6773 32.6438 38.5057 32.6867C35.9198 33.3414 33.5931 34.7644 31.8323 36.7681C31.4763 37.1747 31.1523 37.5974 30.8643 38.0254C30.7331 37.5845 30.6666 37.1268 30.667 36.6667C30.667 35.4441 31.2897 34.1161 32.2763 33.0627C33.4015 31.8656 34.9071 31.0956 36.5363 30.8841C40.2697 30.3907 42.587 30.8041 43.9537 31.1867C44.1382 31.2385 44.3041 31.3422 44.4314 31.4855C44.5587 31.6288 44.6422 31.8056 44.6718 31.995C44.7015 32.1844 44.6761 32.3783 44.5986 32.5537C44.5212 32.729 44.3949 32.8784 44.235 32.9841C44.159 33.0347 44.0363 33.1574 43.8883 33.4374C43.7135 33.7906 43.5707 34.1587 43.4617 34.5374C43.3457 34.9161 43.235 35.3254 43.115 35.7707L43.0377 36.0534C42.8897 36.6001 42.7257 37.1867 42.5283 37.7681C42.139 38.9174 41.5897 40.1441 40.6657 41.0854C39.707 42.0627 38.4057 42.6721 36.667 42.6721C34.895 42.6721 33.6577 41.9534 32.867 41.1267C32.3283 42.1134 32.0483 43.0427 32.0057 43.7281C31.9851 43.9894 31.8628 44.2322 31.665 44.4043C31.4672 44.5763 31.2097 44.6637 30.9481 44.6478C30.6864 44.6319 30.4415 44.5139 30.2659 44.3192C30.0904 44.1245 29.9984 43.8686 30.0097 43.6067Z" fill="#333333"/>
</svg>
