<svg width="141" height="116" viewBox="0 0 141 116" fill="none" xmlns="http://www.w3.org/2000/svg">
<g clip-path="url(#clip0_649_5172)">
<path opacity="0.25" d="M138.833 48.5448C130.758 25.4283 102.303 34.4823 85.0309 32.8769C66.4455 31.1432 75.6741 19.2318 51.4489 10.0494C29.2104 1.63753 -5.01254 27.6757 1.23603 67.5838C8.99067 116.867 83.3326 124.219 114.063 104.795C135.596 91.182 140.243 69.5102 140.467 59.5573C140.563 55.8329 140.05 52.0765 138.833 48.5448Z" fill="url(#paint0_linear_649_5172)"/>
<path opacity="0.25" d="M121.305 8.28345C118.613 5.68284 115.537 3.53172 112.108 2.05483C89.6451 -7.64127 77.0519 19.4564 64.1702 31.0789C50.3272 43.6004 47.219 34.7711 23.4744 45.2057C-0.270169 55.6402 -5.33311 103.735 35.8113 113.335C92.0805 126.435 125.086 89.1271 133.257 56.8603C139.602 31.721 128.45 15.2184 121.305 8.28345Z" fill="url(#paint1_linear_649_5172)"/>
<path d="M87.4972 54.324C87.4972 57.5346 84.9017 60.1352 81.6973 60.1352C84.9017 60.1352 87.4972 62.7358 87.4972 65.9464C87.4972 62.7358 90.0928 60.1352 93.2972 60.1352C90.0928 60.1352 87.4972 57.5346 87.4972 54.324Z" fill="#FFBE00"/>
<path d="M80.2869 54.324C80.2869 55.6724 79.1974 56.7641 77.8516 56.7641C79.1974 56.7641 80.2869 57.8557 80.2869 59.2041C80.2869 57.8557 81.3764 56.7641 82.7222 56.7641C81.3764 56.7641 80.2869 55.6724 80.2869 54.324Z" fill="#FFBE00"/>
<path d="M57.9197 83.3801C57.9197 84.7286 56.8302 85.8202 55.4844 85.8202C56.8302 85.8202 57.9197 86.9118 57.9197 88.2603C57.9197 86.9118 59.0092 85.8202 60.3551 85.8202C59.0413 85.8523 57.9197 84.7286 57.9197 83.3801Z" fill="#FFBE00"/>
<path d="M97.7198 80.1053C97.2391 77.2799 98.0723 74.2619 100.219 72.3034C101.501 71.1476 103.808 70.5376 104.225 68.6433C104.577 67.0059 103.616 65.4006 103.392 63.8274C102.975 61.0341 104.032 58.0804 106.083 56.1219C107.461 54.8055 109.48 54.1313 110.569 52.526C111.595 51.017 111.755 49.1548 112.108 47.4211C112.62 44.9168 114.319 41.353 117.459 42.0914C120.118 42.7336 121.016 45.9763 121.048 48.3522C121.048 49.1869 120.984 50.0538 120.823 50.8886C120.631 51.8517 120.215 52.7507 120.086 53.7139C119.958 54.7413 119.894 55.9292 120.183 56.9245C120.439 57.8235 120.888 58.6583 121.144 59.5894C122.073 62.9284 121.176 66.4601 119.542 69.446C118.452 71.4045 117.683 73.0419 117.907 75.3535C118.1 77.1515 118.612 78.9173 118.452 80.7474C118.196 84.3433 115.568 87.1044 112.396 88.5171C112.3 88.5492 112.204 88.5492 112.14 88.5171C106.051 90.3151 99.0336 86.4944 97.7198 80.1053Z" fill="url(#paint2_linear_649_5172)"/>
<path opacity="0.7" d="M97.7198 80.1053C97.2391 77.2799 98.0723 74.2619 100.219 72.3034C101.501 71.1476 103.808 70.5376 104.225 68.6433C104.577 67.0059 103.616 65.4006 103.392 63.8274C102.975 61.0341 104.032 58.0804 106.083 56.1219C107.461 54.8055 109.48 54.1313 110.569 52.526C111.595 51.017 111.755 49.1548 112.108 47.4211C112.62 44.9168 114.319 41.353 117.459 42.0914C120.118 42.7336 121.016 45.9763 121.048 48.3522C121.048 49.1869 120.984 50.0538 120.823 50.8886C120.631 51.8517 120.215 52.7507 120.086 53.7139C119.958 54.7413 119.894 55.9292 120.183 56.9245C120.439 57.8235 120.888 58.6583 121.144 59.5894C122.073 62.9284 121.176 66.4601 119.542 69.446C118.452 71.4045 117.683 73.0419 117.907 75.3535C118.1 77.1515 118.612 78.9173 118.452 80.7474C118.196 84.3433 115.568 87.1044 112.396 88.5171C112.3 88.5492 112.204 88.5492 112.14 88.5171C106.051 90.3151 99.0336 86.4944 97.7198 80.1053Z" fill="url(#paint3_linear_649_5172)"/>
<path d="M105.217 92.4662C106.147 88.9024 107.076 85.3386 108.005 81.8069C106.403 78.8853 105.282 75.771 104.545 72.4961C104.448 72.0787 105.121 71.9824 105.217 72.3998C105.858 75.3536 106.884 78.1789 108.262 80.8438C109.063 77.8258 109.832 74.8078 110.601 71.7898C110.569 71.7577 110.569 71.7256 110.537 71.6935C108.902 68.6434 107.685 65.4648 106.852 62.1258C106.756 61.7084 107.428 61.6121 107.525 62.0295C108.294 65.0796 109.415 68.0334 110.857 70.8266C111.594 68.0012 112.299 65.1759 113.036 62.3505C112.011 60.1673 111.178 57.8878 110.505 55.5761C110.377 55.1587 111.017 54.9019 111.114 55.3193C111.69 57.3741 112.427 59.3647 113.293 61.3231C114.03 58.4978 114.735 55.6724 115.439 52.8792C115.407 52.8471 115.375 52.815 115.343 52.7829C114.638 51.3702 113.997 49.9254 113.421 48.4485C113.26 48.0311 113.869 47.7743 114.03 48.1917C114.51 49.4438 115.055 50.696 115.664 51.916C116.144 50.0217 116.625 48.1275 117.106 46.2653C117.202 45.8479 117.875 45.9121 117.779 46.3616C117.106 48.9622 116.465 51.5628 115.792 54.1955C116.785 53.1681 117.811 52.1407 118.868 51.1775C119.189 50.8886 119.605 51.4023 119.285 51.6913C117.939 52.9113 116.689 54.1955 115.439 55.544C114.863 57.8557 114.254 60.1352 113.677 62.4147C113.677 62.4469 113.677 62.479 113.645 62.479C113.325 63.7632 112.972 65.0475 112.652 66.3317C115.119 64.6622 117.362 62.7037 119.381 60.5205C119.669 60.1994 120.214 60.6168 119.894 60.9379C117.65 63.3779 115.151 65.497 112.395 67.2949C111.562 70.5697 110.697 73.8446 109.864 77.1194C111.851 75.8352 113.805 74.5509 115.792 73.2667C116.144 73.0419 116.593 73.5556 116.209 73.7804C113.997 75.2252 111.818 76.6378 109.607 78.0826C108.326 82.9949 107.044 87.875 105.762 92.7873C105.73 93.1405 105.121 92.8836 105.217 92.4662Z" fill="url(#paint4_linear_649_5172)"/>
<path d="M93.7137 92.8515C94.2905 89.2877 96.5015 86.0129 99.8341 84.536C101.821 83.6691 104.833 83.8618 106.051 81.7749C107.108 79.9769 106.627 77.6653 106.98 75.7068C107.621 72.2072 110.056 69.0929 113.26 67.5839C115.439 66.5565 118.067 66.5886 120.054 65.0796C121.88 63.699 122.81 61.5158 123.899 59.5894C125.501 56.8283 128.962 53.2324 132.423 55.3835C135.339 57.1815 135.114 61.4516 134.217 64.2769C133.897 65.3043 133.48 66.2675 132.935 67.1986C132.327 68.2581 131.461 69.1892 130.917 70.2808C130.34 71.4366 129.795 72.8493 129.731 74.1336C129.667 75.3215 129.859 76.4773 129.795 77.6653C129.571 81.9996 127.103 85.8845 123.963 88.774C121.88 90.7004 120.31 92.3057 119.669 95.1632C119.189 97.3785 119.06 99.6902 118.195 101.809C116.433 105.983 112.203 108.23 107.877 108.616C107.749 108.616 107.653 108.584 107.557 108.519C99.5777 108.359 92.7524 100.974 93.7137 92.8515Z" fill="url(#paint5_linear_649_5172)"/>
<path d="M130.404 60.1994C129.091 62.2542 127.745 64.309 126.431 66.3638C126.207 64.6621 126.078 62.9605 125.982 61.2589C125.95 60.7131 125.117 60.7773 125.149 61.3231C125.245 63.3137 125.438 65.3043 125.694 67.2628C125.694 67.327 125.726 67.3912 125.758 67.4233C123.771 70.5055 121.785 73.5556 119.798 76.6378C119.542 73.973 119.477 71.276 119.606 68.6112C119.638 68.0654 118.772 68.1296 118.772 68.6754C118.612 71.7255 118.74 74.7435 119.061 77.7615C117.074 80.8437 115.087 83.9259 113.069 87.0081C112.46 83.0912 112.3 79.1421 112.62 75.193C112.652 74.6472 111.819 74.4867 111.787 75.0325C111.466 79.3347 111.627 83.6691 112.364 87.9392C112.364 87.9713 112.396 88.0355 112.396 88.0676C110.249 91.3425 108.134 94.6494 105.987 97.9243C105.41 94.1678 105.314 90.4114 105.731 86.6549C105.795 86.1091 104.962 85.9486 104.897 86.4944C104.449 90.6682 104.577 94.842 105.314 98.9838C103.071 102.419 100.796 105.887 98.5527 109.322L99.6102 109.226C102.686 104.538 105.763 99.8506 108.807 95.1631C111.979 94.3284 115.184 93.4936 118.356 92.6909C118.901 92.5625 118.58 91.7599 118.067 91.8883C115.216 92.6267 112.332 93.3652 109.48 94.1036C111.787 90.5398 114.094 86.976 116.433 83.4122C120.439 82.3527 124.284 80.8116 127.905 78.821C128.386 78.5642 127.937 77.8578 127.456 78.1147C124.188 79.9126 120.727 81.3253 117.138 82.3527C118.035 80.94 118.933 79.5595 119.862 78.1468C119.894 78.1147 119.894 78.0826 119.926 78.0826C121.528 75.5783 123.162 73.074 124.765 70.5697C126.751 69.4781 128.802 68.4507 130.853 67.5196C131.366 67.2949 131.077 66.4922 130.565 66.717C128.898 67.4554 127.296 68.258 125.694 69.0928C127.52 66.2354 129.347 63.41 131.173 60.5525C131.462 60.1031 130.693 59.7499 130.404 60.1994Z" fill="url(#paint6_linear_649_5172)"/>
<path d="M40.3932 26.6804C40.3932 30.3084 43.3413 33.2622 46.9622 33.2622C43.3413 33.2622 40.3932 36.216 40.3932 39.844C40.3932 36.216 37.4452 33.2622 33.8242 33.2622C37.4452 33.2622 40.3932 30.3084 40.3932 26.6804Z" fill="#FFBE00"/>
<path d="M47.3464 26.0383C47.3464 27.5794 48.5961 28.8316 50.1342 28.8316C48.5961 28.8316 47.3464 30.0837 47.3464 31.6248C47.3464 30.0837 46.0967 28.8316 44.5586 28.8316C46.0967 28.7995 47.3464 27.5473 47.3464 26.0383Z" fill="#FFBE00"/>
<path d="M108.028 104.57H32.3405C31.4432 104.57 30.7383 103.864 30.7383 102.965V56.6034C30.7383 55.7044 31.4432 54.998 32.3405 54.998H107.996C108.893 54.998 109.598 55.7044 109.598 56.6034V102.965C109.63 103.864 108.893 104.57 108.028 104.57Z" fill="#79421B"/>
<path d="M106.651 57.8555H33.7188V101.713H106.651V57.8555Z" fill="#F7BE96"/>
<path d="M31.0275 108.937H109.311C111.201 108.937 112.74 107.395 112.74 105.501V104.57H27.6309V105.501C27.6309 107.395 29.1369 108.937 31.0275 108.937Z" fill="#F97316"/>
<path d="M77.074 106.753H63.2631C62.462 106.753 61.7891 106.079 61.7891 105.276V104.57H78.548V105.276C78.548 106.079 77.9072 106.753 77.074 106.753Z" fill="#F97316"/>
<path opacity="0.2" d="M31.9559 108.937H108.381C109.598 108.937 110.72 108.423 111.521 107.588H28.8477C29.6167 108.423 30.7382 108.937 31.9559 108.937Z" fill="#F97316"/>
<path d="M100.7 79.1101H33.6641V85.6598H100.7V79.1101Z" fill="#E3F1FE"/>
<path opacity="0.5" d="M68.9991 86.8152H33.7188V98.6945H68.9991V86.8152Z" fill="#E3F1FE"/>
<path d="M100.698 86.8154H71.7305V88.9023H100.698V86.8154Z" fill="#E3F1FE"/>
<path d="M100.698 90.0903H71.7305V92.1772H100.698V90.0903Z" fill="#E3F1FE"/>
<path d="M100.698 93.3652H71.7305V95.4521H100.698V93.3652Z" fill="#E3F1FE"/>
<path d="M100.698 96.6401H71.7305V98.727H100.698V96.6401Z" fill="#E3F1FE"/>
<path d="M109.64 45.3021H63.1763C62.4713 45.3021 61.8945 44.7242 61.8945 44.0178V30.0516C61.8945 29.3452 62.4713 28.7673 63.1763 28.7673H109.64C110.345 28.7673 110.922 29.3452 110.922 30.0516V44.0178C110.922 44.7242 110.345 45.3021 109.64 45.3021Z" fill="#F97316"/>
<path d="M79.0692 43.3757L78.0117 52.3334L84.1962 44.4352L79.0692 43.3757Z" fill="#F97316"/>
<path d="M19.4684 108.937C23.2816 108.937 26.3578 105.854 26.3578 102.034V96.7683C21.9037 98.4378 17.001 98.4378 12.5469 96.7683V102.034C12.5469 105.822 15.6551 108.937 19.4684 108.937Z" fill="#79421B"/>
<path d="M26.3578 96.7363C21.9037 98.4058 17.001 98.4058 12.5469 96.7363C17.001 95.0667 21.9037 95.0667 26.3578 96.7363Z" fill="#79421B"/>
<g opacity="0.5">
<path d="M26.3578 96.7363C21.9037 98.4058 17.001 98.4058 12.5469 96.7363C17.001 95.0667 21.9037 95.0667 26.3578 96.7363Z" fill="#79421B"/>
</g>
<path d="M26.3578 98.1169C21.9037 99.7864 17.001 99.7864 12.5469 98.1169C17.001 96.4474 21.9037 96.4474 26.3578 98.1169Z" fill="#269AFF"/>
<path d="M19.4684 108.937C23.2816 108.937 26.3578 105.854 26.3578 102.034V96.7683C21.9037 98.4378 17.001 98.4378 12.5469 96.7683V102.034C12.5469 105.822 15.6551 108.937 19.4684 108.937Z" fill="#79421B"/>
<path d="M12.2576 103.575H13.4112V102.259H12.2576C11.6488 102.259 11.1361 101.745 11.1361 101.135C11.1361 100.525 11.6488 100.011 12.2576 100.011H13.1869V98.6948H12.2576C10.9118 98.6948 9.82227 99.7864 9.82227 101.135C9.82227 102.483 10.9118 103.575 12.2576 103.575Z" fill="#79421B"/>
<path d="M26.3578 98.9197V101.809C21.9037 103.479 17.001 103.479 12.5469 101.809V98.9197C17.001 100.589 21.9037 100.589 26.3578 98.9197Z" fill="#F97316"/>
<path d="M9.53399 76.991C9.88648 76.2205 10.4633 75.5141 11.2003 75.0967C11.9693 74.7115 12.9307 74.6472 13.6356 75.1288C15.1737 76.1241 14.9494 78.8211 16.6157 79.5595C18.0577 80.2016 19.9803 78.8532 21.23 79.8164C21.9991 80.4264 21.9991 81.5822 21.6466 82.4812C21.2941 83.3802 20.6532 84.1507 20.3008 85.0176C19.9483 85.9165 19.9162 87.0724 20.6532 87.6824C21.4223 88.3245 22.672 88.164 23.377 88.8703C24.0179 89.5446 23.8576 90.6683 23.3449 91.4388C22.8322 92.2094 22.0311 92.7231 21.3262 93.3331C20.2046 94.3605 19.3715 95.7411 19.019 97.2501C19.019 97.2501 18.987 95.4842 19.6278 94.2C19.8842 93.6863 20.3328 93.2689 20.4289 92.691C20.5571 91.8883 19.9483 91.1178 19.2433 90.7646C18.5063 90.4114 17.6732 90.3472 16.8721 90.2188C15.8467 90.0583 14.7892 89.8014 14.0201 89.063C13.2831 88.3566 12.9627 87.0724 13.6036 86.2376C13.7958 85.9808 14.0522 85.7881 14.2124 85.5313C14.629 84.7928 14.0201 83.8617 13.2831 83.4444C12.5461 83.027 11.6489 82.9628 10.9119 82.5454C9.98261 82.0317 9.30969 81.0685 9.11742 80.0411C8.89311 79.0779 9.08538 77.9542 9.53399 76.991Z" fill="url(#paint7_linear_649_5172)"/>
<path d="M109.703 75.4498H22.8323C22.4798 75.4498 22.1914 75.1609 22.1914 74.8077V60.7452C22.1914 60.392 22.4798 60.103 22.8323 60.103H109.703C110.056 60.103 110.344 60.392 110.344 60.7452V74.8077C110.344 75.1609 110.056 75.4498 109.703 75.4498Z" fill="#F97316"/>
<path d="M37.7327 75.4498H22.8323C22.4798 75.4498 22.1914 75.1609 22.1914 74.8077V60.7452C22.1914 60.392 22.4798 60.103 22.8323 60.103H37.7327V75.4498Z" fill="#F97316"/>
<g opacity="0.5">
<path d="M40.6484 69.8312L41.1291 68.7717C41.5777 69.0606 42.2186 69.2533 42.7954 69.2533C43.3722 69.2533 43.6285 69.0927 43.6285 68.8359C43.6285 68.0332 40.7766 68.6112 40.7766 66.749C40.7766 65.85 41.5136 65.1116 43.0197 65.1116C43.6606 65.1116 44.3655 65.2721 44.8462 65.5611L44.3976 66.6206C43.9169 66.3637 43.4363 66.2353 42.9876 66.2353C42.3788 66.2353 42.1865 66.4279 42.1865 66.6848C42.1865 67.4553 45.0385 66.8774 45.0385 68.7396C45.0385 69.6065 44.3014 70.377 42.7954 70.377C41.9302 70.4091 41.1291 70.1844 40.6484 69.8312Z" fill="#E3F1FE"/>
<path d="M49.684 69.1891V70.2807H45.6465V65.24H49.5879V66.3316H47.0564V67.1664H49.2995V68.2259H47.0564V69.157H49.684V69.1891Z" fill="#E3F1FE"/>
<path d="M53.8496 69.3176H51.7347L51.3502 70.3129H49.9082L52.1192 65.2722H53.5292L55.7722 70.3129H54.2982L53.8496 69.3176ZM53.433 68.2581L52.7922 66.6528L52.1513 68.2581H53.433Z" fill="#E3F1FE"/>
<path d="M58.3352 68.9644H57.5662V70.3129H56.1562V65.2722H58.4634C59.8413 65.2722 60.7065 65.9786 60.7065 67.1344C60.7065 67.8728 60.354 68.4186 59.7131 68.7397L60.8026 70.3129H59.2645L58.3352 68.9644ZM58.3352 66.3638H57.5341V67.8407H58.3352C58.912 67.8407 59.2325 67.5518 59.2325 67.1023C59.2325 66.6528 58.9441 66.3638 58.3352 66.3638Z" fill="#E3F1FE"/>
<path d="M61.1895 67.7765C61.1895 66.2354 62.3751 65.1438 63.9452 65.1438C64.8745 65.1438 65.6115 65.497 66.1242 66.107L65.227 66.9418C64.9066 66.5565 64.522 66.3638 64.0414 66.3638C63.2082 66.3638 62.6314 66.9418 62.6314 67.8086C62.6314 68.6755 63.2082 69.2534 64.0414 69.2534C64.522 69.2534 64.9066 69.0287 65.227 68.6755L66.1242 69.5103C65.6436 70.1203 64.8745 70.4734 63.9452 70.4734C62.3751 70.4092 61.1895 69.3176 61.1895 67.7765Z" fill="#E3F1FE"/>
<path d="M71.5402 65.24V70.2807H70.1302V68.3222H68.1756V70.2807H66.7656V65.24H68.1756V67.1343H70.1302V65.24H71.5402Z" fill="#E3F1FE"/>
</g>
<path d="M34.4326 71.8218L31.9012 69.2854C32.8945 67.9049 32.7984 65.9143 31.5487 64.6621C30.1708 63.2816 27.8957 63.2816 26.5178 64.6621C25.1399 66.0427 25.1399 68.3223 26.5178 69.7028C27.7675 70.955 29.7222 71.0834 31.1321 70.056L33.6636 72.5924L34.4326 71.8218ZM26.9664 69.2212C25.8449 68.0975 25.8449 66.2353 26.9664 65.1116C28.0879 63.9879 29.9465 63.9879 31.068 65.1116C32.1896 66.2353 32.1896 68.0975 31.068 69.2212C29.9465 70.345 28.0879 70.345 26.9664 69.2212Z" fill="white"/>
<path d="M83.6101 78.6516L79.8262 82.4429L92.9453 95.5875L96.7292 91.7962L83.6101 78.6516Z" fill="#79421B"/>
<g opacity="0.7">
<path d="M83.6101 78.6516L79.8262 82.4429L92.9453 95.5875L96.7292 91.7962L83.6101 78.6516Z" fill="#79421B"/>
</g>
<path d="M97.2694 91.2462L92.3987 96.1263C92.2706 96.2547 92.0462 96.2547 91.9181 96.1263L84.8364 89.0308C84.7082 88.9024 84.7082 88.6776 84.8364 88.5492L89.707 83.6691C89.8352 83.5406 90.0595 83.5406 90.1877 83.6691L97.2694 90.7646C97.3976 90.893 97.3976 91.1177 97.2694 91.2462Z" fill="#79421B"/>
<g opacity="0.5">
<path d="M97.2694 91.2462L92.3987 96.1263C92.2706 96.2547 92.0462 96.2547 91.9181 96.1263L84.8364 89.0308C84.7082 88.9024 84.7082 88.6776 84.8364 88.5492L89.707 83.6691C89.8352 83.5406 90.0595 83.5406 90.1877 83.6691L97.2694 90.7646C97.3976 90.893 97.3976 91.1177 97.2694 91.2462Z" fill="#79421B"/>
</g>
<path d="M82.8172 81.6786C76.1841 88.3246 65.3853 88.3246 58.7522 81.6786C52.1191 75.0326 52.1191 64.2128 58.7522 57.5668C65.3853 50.9208 76.1841 50.9208 82.8172 57.5668C89.4503 64.2128 89.4503 75.0326 82.8172 81.6786ZM60.9952 59.7821C55.5798 65.2081 55.5798 74.0373 60.9952 79.4312C66.4107 84.825 75.2228 84.8571 80.6061 79.4312C86.0216 74.0052 86.0216 65.176 80.6061 59.7821C75.1907 54.3883 66.4107 54.3561 60.9952 59.7821Z" fill="#79421B"/>
<g opacity="0.5">
<path d="M82.8172 81.6786C76.1841 88.3246 65.3853 88.3246 58.7522 81.6786C52.1191 75.0326 52.1191 64.2128 58.7522 57.5668C65.3853 50.9208 76.1841 50.9208 82.8172 57.5668C89.4503 64.2128 89.4503 75.0326 82.8172 81.6786ZM60.9952 59.7821C55.5798 65.2081 55.5798 74.0373 60.9952 79.4312C66.4107 84.825 75.2228 84.8571 80.6061 79.4312C86.0216 74.0052 86.0216 65.176 80.6061 59.7821C75.1907 54.3883 66.4107 54.3561 60.9952 59.7821Z" fill="#79421B"/>
</g>
<path opacity="0.6" d="M60.9952 59.782C55.5797 65.208 55.5797 74.0372 60.9952 79.4311C66.4106 84.8249 75.2227 84.8571 80.6061 79.4311C86.0215 74.0051 86.0215 65.1759 80.6061 59.782C75.1906 54.3882 66.4106 54.3561 60.9952 59.782Z" fill="#C2E1FE"/>
<path opacity="0.3" d="M61.1889 62.0296C57.9845 65.9787 58.0486 73.1705 59.3303 74.4547C60.6121 75.739 62.695 75.739 63.9767 74.4547C65.2585 73.1705 64.8739 66.2034 64.5535 64.4055C64.0088 61.6443 62.4706 60.7454 61.1889 62.0296Z" fill="#F9F9F9"/>
<path d="M78.2211 35.6725C78.2211 36.7828 78.0106 37.7274 77.5897 38.5063C77.1721 39.2852 76.602 39.8801 75.8794 40.2911C75.1602 40.6988 74.3515 40.9026 73.4533 40.9026C72.5485 40.9026 71.7364 40.6971 71.0172 40.2861C70.298 39.8751 69.7296 39.2802 69.312 38.5013C68.8944 37.7224 68.6855 36.7795 68.6855 35.6725C68.6855 34.5622 68.8944 33.6176 69.312 32.8387C69.7296 32.0598 70.298 31.4665 71.0172 31.0589C71.7364 30.6479 72.5485 30.4424 73.4533 30.4424C74.3515 30.4424 75.1602 30.6479 75.8794 31.0589C76.602 31.4665 77.1721 32.0598 77.5897 32.8387C78.0106 33.6176 78.2211 34.5622 78.2211 35.6725ZM76.0385 35.6725C76.0385 34.9533 75.9308 34.3467 75.7154 33.8529C75.5033 33.359 75.2033 32.9845 74.8155 32.7293C74.4277 32.4741 73.9737 32.3465 73.4533 32.3465C72.9329 32.3465 72.4789 32.4741 72.0911 32.7293C71.7033 32.9845 71.4017 33.359 71.1863 33.8529C70.9741 34.3467 70.8681 34.9533 70.8681 35.6725C70.8681 36.3917 70.9741 36.9983 71.1863 37.4921C71.4017 37.9859 71.7033 38.3605 72.0911 38.6157C72.4789 38.8709 72.9329 38.9985 73.4533 38.9985C73.9737 38.9985 74.4277 38.8709 74.8155 38.6157C75.2033 38.3605 75.5033 37.9859 75.7154 37.4921C75.9308 36.9983 76.0385 36.3917 76.0385 35.6725Z" fill="white"/>
<path d="M83.2262 40.9126C82.454 40.9126 81.7861 40.7485 81.2227 40.4204C80.6625 40.0889 80.23 39.6282 79.9251 39.0383C79.6201 38.445 79.4677 37.7573 79.4677 36.9751C79.4677 36.1862 79.6201 35.4968 79.9251 34.9069C80.23 34.3136 80.6625 33.8529 81.2227 33.5248C81.7861 33.1933 82.454 33.0276 83.2262 33.0276C83.9985 33.0276 84.6647 33.1933 85.2248 33.5248C85.7882 33.8529 86.2224 34.3136 86.5273 34.9069C86.8323 35.4968 86.9847 36.1862 86.9847 36.9751C86.9847 37.7573 86.8323 38.445 86.5273 39.0383C86.2224 39.6282 85.7882 40.0889 85.2248 40.4204C84.6647 40.7485 83.9985 40.9126 83.2262 40.9126ZM83.2362 39.2719C83.5875 39.2719 83.8808 39.1725 84.1161 38.9736C84.3514 38.7715 84.5288 38.4964 84.6481 38.1483C84.7707 37.8003 84.832 37.4043 84.832 36.9601C84.832 36.516 84.7707 36.1199 84.6481 35.7719C84.5288 35.4239 84.3514 35.1488 84.1161 34.9466C83.8808 34.7445 83.5875 34.6434 83.2362 34.6434C82.8815 34.6434 82.5832 34.7445 82.3413 34.9466C82.1026 35.1488 81.922 35.4239 81.7994 35.7719C81.68 36.1199 81.6204 36.516 81.6204 36.9601C81.6204 37.4043 81.68 37.8003 81.7994 38.1483C81.922 38.4964 82.1026 38.7715 82.3413 38.9736C82.5832 39.1725 82.8815 39.2719 83.2362 39.2719Z" fill="white"/>
<path d="M88.3619 43.627V33.127H90.4499V34.4097H90.5444C90.6372 34.2042 90.7714 33.9954 90.9471 33.7833C91.1261 33.5679 91.3581 33.3889 91.6431 33.2464C91.9315 33.1005 92.2894 33.0276 92.717 33.0276C93.2738 33.0276 93.7875 33.1734 94.2582 33.4651C94.7288 33.7535 95.105 34.1893 95.3867 34.7726C95.6684 35.3527 95.8093 36.0802 95.8093 36.9552C95.8093 37.807 95.6718 38.5262 95.3967 39.1128C95.1249 39.6962 94.7537 40.1386 94.283 40.4403C93.8157 40.7385 93.292 40.8877 92.712 40.8877C92.301 40.8877 91.9514 40.8198 91.663 40.6839C91.378 40.548 91.1443 40.3773 90.962 40.1718C90.7797 39.963 90.6405 39.7525 90.5444 39.5404H90.4798V43.627H88.3619ZM90.435 36.9452C90.435 37.3993 90.498 37.7954 90.6239 38.1334C90.7499 38.4715 90.9322 38.735 91.1708 38.9239C91.4094 39.1095 91.6995 39.2023 92.0408 39.2023C92.3855 39.2023 92.6772 39.1079 92.9158 38.9189C93.1545 38.7267 93.3351 38.4616 93.4577 38.1235C93.5837 37.7821 93.6467 37.3894 93.6467 36.9452C93.6467 36.5044 93.5853 36.1166 93.4627 35.7819C93.3401 35.4471 93.1594 35.1853 92.9208 34.9964C92.6822 34.8074 92.3888 34.713 92.0408 34.713C91.6961 34.713 91.4045 34.8041 91.1658 34.9864C90.9305 35.1687 90.7499 35.4272 90.6239 35.762C90.498 36.0967 90.435 36.4912 90.435 36.9452Z" fill="white"/>
<path d="M103.575 35.3046L101.636 35.4239C101.603 35.2582 101.532 35.109 101.422 34.9765C101.313 34.8406 101.169 34.7329 100.99 34.6533C100.814 34.5705 100.604 34.529 100.358 34.529C100.03 34.529 99.7534 34.5986 99.5281 34.7378C99.3027 34.8737 99.19 35.056 99.19 35.2847C99.19 35.467 99.2629 35.6211 99.4087 35.7471C99.5546 35.873 99.8048 35.9741 100.159 36.0503L101.542 36.3287C102.284 36.4812 102.837 36.7265 103.202 37.0645C103.567 37.4026 103.749 37.8467 103.749 38.3969C103.749 38.8974 103.601 39.3366 103.306 39.7144C103.015 40.0922 102.614 40.3872 102.103 40.5993C101.596 40.8082 101.011 40.9126 100.348 40.9126C99.3375 40.9126 98.5321 40.7021 97.9322 40.2812C97.3356 39.8569 96.9859 39.2802 96.8832 38.551L98.9663 38.4417C99.0292 38.7499 99.1817 38.9852 99.4237 39.1476C99.6656 39.3067 99.9755 39.3863 100.353 39.3863C100.725 39.3863 101.023 39.315 101.248 39.1725C101.477 39.0267 101.593 38.8394 101.596 38.6107C101.593 38.4185 101.512 38.261 101.353 38.1384C101.194 38.0125 100.948 37.9163 100.617 37.8501L99.2944 37.5866C98.5487 37.4374 97.9935 37.1789 97.6289 36.811C97.2676 36.4431 97.087 35.9741 97.087 35.404C97.087 34.9135 97.2196 34.4909 97.4847 34.1363C97.7532 33.7816 98.1294 33.5082 98.6133 33.316C99.1005 33.1237 99.6706 33.0276 100.324 33.0276C101.288 33.0276 102.047 33.2314 102.6 33.6391C103.157 34.0468 103.482 34.6019 103.575 35.3046Z" fill="white"/>
</g>
<defs>
<linearGradient id="paint0_linear_649_5172" x1="70.4935" y1="114.014" x2="70.4935" y2="2.09183" gradientUnits="userSpaceOnUse">
<stop stop-color="#F97316"/>
<stop offset="1" stop-color="white"/>
</linearGradient>
<linearGradient id="paint1_linear_649_5172" x1="70.1832" y1="115.23" x2="70.1832" y2="-6.95988" gradientUnits="userSpaceOnUse">
<stop stop-color="#F97316"/>
<stop offset="1" stop-color="#FFE8D8"/>
</linearGradient>
<linearGradient id="paint2_linear_649_5172" x1="116.755" y1="41.7702" x2="105.326" y2="90.833" gradientUnits="userSpaceOnUse">
<stop stop-color="#FDDA42"/>
<stop offset="1" stop-color="#E5A003"/>
</linearGradient>
<linearGradient id="paint3_linear_649_5172" x1="116.755" y1="41.7702" x2="105.326" y2="90.833" gradientUnits="userSpaceOnUse">
<stop stop-color="#FDDA42"/>
<stop offset="1" stop-color="#E5A003"/>
</linearGradient>
<linearGradient id="paint4_linear_649_5172" x1="118.217" y1="85.075" x2="104.828" y2="53.8442" gradientUnits="userSpaceOnUse">
<stop stop-color="#FDDA42"/>
<stop offset="1" stop-color="#E5A003"/>
</linearGradient>
<linearGradient id="paint5_linear_649_5172" x1="131.688" y1="54.7602" x2="98.4404" y2="108.634" gradientUnits="userSpaceOnUse">
<stop stop-color="#FDDA42"/>
<stop offset="1" stop-color="#E5A003"/>
</linearGradient>
<linearGradient id="paint6_linear_649_5172" x1="116.663" y1="106.923" x2="113.212" y2="64.3294" gradientUnits="userSpaceOnUse">
<stop stop-color="#FDDA42"/>
<stop offset="1" stop-color="#E5A003"/>
</linearGradient>
<linearGradient id="paint7_linear_649_5172" x1="16.4015" y1="98.7528" x2="16.4015" y2="75.4835" gradientUnits="userSpaceOnUse">
<stop stop-color="#FDDA42"/>
<stop offset="1" stop-color="#E5A003"/>
</linearGradient>
<clipPath id="clip0_649_5172">
<rect width="140" height="116" fill="white" transform="translate(0.5)"/>
</clipPath>
</defs>
</svg>
