<svg width="60" height="60" viewBox="0 0 60 60" fill="none" xmlns="http://www.w3.org/2000/svg">
<rect x="0.5" y="0.5" width="59" height="59" rx="3.5" fill="white" stroke="#DDDDDD"/>
<path d="M25.0002 38H35.0002V40H25.0002V38ZM27.0002 42H33.0002V44H27.0002V42ZM30.0002 16C27.348 16 24.8045 17.0536 22.9291 18.9289C21.0537 20.8043 20.0002 23.3478 20.0002 26C19.9325 27.4533 20.2109 28.902 20.8125 30.2267C21.414 31.5514 22.3214 32.7144 23.4602 33.62C24.4602 34.55 25.0002 35.08 25.0002 36H27.0002C27.0002 34.16 25.8902 33.13 24.8102 32.14C23.8755 31.4243 23.1306 30.4903 22.6407 29.4198C22.1509 28.3494 21.9309 27.1752 22.0002 26C22.0002 23.8783 22.843 21.8434 24.3433 20.3431C25.8436 18.8429 27.8784 18 30.0002 18C32.1219 18 34.1567 18.8429 35.657 20.3431C37.1573 21.8434 38.0002 23.8783 38.0002 26C38.0683 27.176 37.8468 28.3508 37.3551 29.4213C36.8635 30.4918 36.1166 31.4253 35.1802 32.14C34.1102 33.14 33.0002 34.14 33.0002 36H35.0002C35.0002 35.08 35.5302 34.55 36.5402 33.61C37.6781 32.706 38.5851 31.5447 39.1867 30.2217C39.7882 28.8987 40.067 27.4518 40.0002 26C40.0002 24.6868 39.7415 23.3864 39.239 22.1732C38.7364 20.9599 37.9998 19.8575 37.0712 18.9289C36.1427 18.0003 35.0403 17.2638 33.827 16.7612C32.6137 16.2587 31.3134 16 30.0002 16Z" fill="#333333"/>
</svg>
