<svg width="60" height="60" viewBox="0 0 60 60" fill="none" xmlns="http://www.w3.org/2000/svg">
<rect x="0.5" y="0.5" width="59" height="59" rx="3.5" fill="white" stroke="#DDDDDD"/>
<g clip-path="url(#clip0_945_3806)">
<path d="M38 39.4745L35.41 36.8845L34 38.2945L38 42.2945L45 35.2945L43.59 33.8845L38 39.4745ZM29 35.8845H31V37.8845H29V35.8845ZM23 35.8845H25V37.8845H23V35.8845ZM35 30.8845H37V32.8845H35V30.8845ZM29 30.8845H31V32.8845H29V30.8845ZM23 30.8845H25V32.8845H23V30.8845ZM35 25.8845H37V27.8845H35V25.8845ZM29 25.8845H31V27.8845H29V25.8845ZM23 25.8845H25V27.8845H23V25.8845ZM23 19.8845H37V22.8845H23V19.8845Z" fill="#333333"/>
<path d="M31 42.8845H20.005C19.4734 42.884 18.9637 42.6726 18.5878 42.2967C18.2119 41.9208 18.0005 41.4111 18 40.8795V16.8805C18.0005 16.3513 18.211 15.8439 18.5852 15.4697C18.9594 15.0955 19.4668 14.8851 19.996 14.8845H40.004C40.5332 14.8851 41.0406 15.0955 41.4148 15.4697C41.789 15.8439 41.9995 16.3513 42 16.8805V30.8845H40V16.8845H20V40.8845H31V42.8845Z" fill="#333333"/>
</g>
<defs>
<clipPath id="clip0_945_3806">
<rect width="32" height="32" fill="white" transform="translate(14 14)"/>
</clipPath>
</defs>
</svg>
