<svg width="60" height="60" viewBox="0 0 60 60" fill="none" xmlns="http://www.w3.org/2000/svg">
<rect x="0.5" y="0.5" width="59" height="59" rx="3.5" fill="white" stroke="#DDDDDD"/>
<path d="M44 32C44.002 30.9987 43.7534 30.0127 43.2768 29.1321C42.8002 28.2514 42.1107 27.5041 41.2713 26.9581C40.4319 26.4122 39.4692 26.085 38.4709 26.0064C37.4726 25.9278 36.4706 26.1003 35.5561 26.5082C34.6415 26.916 33.8437 27.5463 33.2351 28.3415C32.6266 29.1368 32.2267 30.0716 32.072 31.061C31.9173 32.0503 32.0127 33.0626 32.3495 34.0057C32.6862 34.9487 33.2536 35.7924 34 36.46V44L38 42.107L42 44V36.46C42.6287 35.8994 43.1318 35.2123 43.4765 34.4437C43.8212 33.6751 43.9996 32.8423 44 32ZM40 40.84L38 39.893L36 40.84V37.65C37.2925 38.1168 38.7075 38.1168 40 37.65V40.84ZM38 36C37.2089 36 36.4355 35.7654 35.7777 35.3259C35.1199 34.8864 34.6072 34.2616 34.3045 33.5307C34.0017 32.7998 33.9225 31.9956 34.0769 31.2196C34.2312 30.4437 34.6122 29.731 35.1716 29.1716C35.731 28.6122 36.4437 28.2312 37.2196 28.0769C37.9956 27.9225 38.7998 28.0017 39.5307 28.3045C40.2616 28.6072 40.8864 29.1199 41.3259 29.7777C41.7654 30.4355 42 31.2089 42 32C41.9987 33.0605 41.5768 34.0771 40.827 34.827C40.0771 35.5768 39.0605 35.9987 38 36ZM23 28H30V30H23V28ZM23 22H33V24H23V22Z" fill="#F97316"/>
<path d="M20 44C19.4697 43.9995 18.9613 43.7886 18.5864 43.4136C18.2114 43.0387 18.0005 42.5303 18 42V18C18.0005 17.4697 18.2114 16.9613 18.5864 16.5864C18.9613 16.2114 19.4697 16.0005 20 16H36C36.5303 16.0005 37.0387 16.2114 37.4136 16.5864C37.7886 16.9613 37.9995 17.4697 38 18V22H36V18H20V42H30V44H20Z" fill="#F97316"/>
</svg>
