<svg width="40" height="41" viewBox="0 0 40 41" fill="none" xmlns="http://www.w3.org/2000/svg">
<circle cx="20" cy="20.291" r="20" fill="#353030"/>
<path d="M20.0001 16.259C17.7804 16.259 15.9689 18.0705 15.9689 20.2903C15.9689 22.51 17.7804 24.3215 20.0001 24.3215C22.2199 24.3215 24.0314 22.51 24.0314 20.2903C24.0314 18.0705 22.2199 16.259 20.0001 16.259ZM32.0909 20.2903C32.0909 18.6209 32.106 16.9667 32.0122 15.3003C31.9185 13.3649 31.4769 11.6471 30.0616 10.2318C28.6433 8.81345 26.9286 8.37494 24.9931 8.28119C23.3237 8.18744 21.6695 8.20256 20.0032 8.20256C18.3338 8.20256 16.6796 8.18744 15.0132 8.28119C13.0777 8.37494 11.36 8.81647 9.94468 10.2318C8.52634 11.6501 8.08783 13.3649 7.99408 15.3003C7.90033 16.9697 7.91545 18.6239 7.91545 20.2903C7.91545 21.9566 7.90033 23.6138 7.99408 25.2802C8.08783 27.2157 8.52936 28.9334 9.94468 30.3487C11.363 31.7671 13.0777 32.2056 15.0132 32.2993C16.6826 32.3931 18.3368 32.378 20.0032 32.378C21.6725 32.378 23.3267 32.3931 24.9931 32.2993C26.9286 32.2056 28.6463 31.764 30.0616 30.3487C31.48 28.9304 31.9185 27.2157 32.0122 25.2802C32.109 23.6138 32.0909 21.9596 32.0909 20.2903ZM20.0001 26.4929C16.5677 26.4929 13.7975 23.7227 13.7975 20.2903C13.7975 16.8578 16.5677 14.0876 20.0001 14.0876C23.4326 14.0876 26.2027 16.8578 26.2027 20.2903C26.2027 23.7227 23.4326 26.4929 20.0001 26.4929ZM26.4568 15.2822C25.6554 15.2822 25.0082 14.635 25.0082 13.8336C25.0082 13.0322 25.6554 12.385 26.4568 12.385C27.2582 12.385 27.9054 13.0322 27.9054 13.8336C27.9056 14.0239 27.8683 14.2124 27.7956 14.3882C27.7229 14.5641 27.6162 14.7239 27.4816 14.8584C27.3471 14.993 27.1873 15.0997 27.0114 15.1724C26.8356 15.2451 26.6471 15.2824 26.4568 15.2822Z" fill="white"/>
</svg>
