<svg width="40" height="41" viewBox="0 0 40 41" fill="none" xmlns="http://www.w3.org/2000/svg">
<circle cx="20" cy="20.291" r="20" fill="#353030"/>
<path fill-rule="evenodd" clip-rule="evenodd" d="M17.3737 17.195H21.1675V19.0848C21.7141 17.9979 23.1156 17.0214 25.2209 17.0214C29.2568 17.0214 30.215 19.1849 30.215 23.1545V30.5063H26.129V24.0585C26.129 21.7979 25.5825 20.5231 24.1912 20.5231C22.2616 20.5231 21.4597 21.897 21.4597 24.0575V30.5063H17.3737V17.195ZM10.3672 30.3326H14.4532V17.0214H10.3672V30.3326ZM15.0385 12.681C15.0387 13.0235 14.9707 13.3626 14.8387 13.6786C14.7066 13.9946 14.5131 14.2812 14.2693 14.5218C13.7753 15.0127 13.1067 15.2875 12.4102 15.2858C11.7149 15.2854 11.0478 15.0113 10.5531 14.5228C10.3102 14.2814 10.1173 13.9945 9.98548 13.6784C9.85366 13.3624 9.7855 13.0234 9.78491 12.681C9.78491 11.9895 10.0607 11.3275 10.5541 10.8392C11.0484 10.3501 11.7158 10.0759 12.4112 10.0762C13.1079 10.0762 13.7759 10.351 14.2693 10.8392C14.7617 11.3275 15.0385 11.9895 15.0385 12.681Z" fill="white"/>
</svg>
