<svg width="141" height="49" viewBox="0 0 141 49" fill="none" xmlns="http://www.w3.org/2000/svg">
<path d="M23.8688 7.02987L20.7907 6.20508L18.1967 15.886L15.8549 7.146L12.7767 7.97079L15.3069 17.4137L9.00462 11.1114L6.75126 13.3648L13.6641 20.2777L5.05526 17.9709L4.23047 21.049L13.6367 23.5695C13.529 23.105 13.472 22.621 13.472 22.1237C13.472 18.6037 16.3255 15.7502 19.8455 15.7502C23.3655 15.7502 26.219 18.6037 26.219 22.1237C26.219 22.6178 26.1627 23.0988 26.0564 23.5605L34.6049 25.8511L35.4297 22.773L25.986 20.2425L34.5954 17.9356L33.7706 14.8575L24.3274 17.3878L30.6297 11.0855L28.3763 8.83218L21.5593 15.6491L23.8688 7.02987Z" fill="#F97316"/>
<path d="M26.0484 23.5957C25.7845 24.7114 25.2274 25.7138 24.4629 26.5168L30.6559 32.7099L32.9093 30.4565L26.0484 23.5957Z" fill="#F97316"/>
<path d="M24.3987 26.582C23.625 27.3723 22.6473 27.962 21.5508 28.2659L23.8043 36.6761L26.8824 35.8513L24.3987 26.582Z" fill="#F97316"/>
<path d="M21.4376 28.2965C20.9289 28.4273 20.3956 28.4968 19.8462 28.4968C19.2575 28.4968 18.6874 28.417 18.1462 28.2676L15.8906 36.6855L18.9687 37.5102L21.4376 28.2965Z" fill="#F97316"/>
<path d="M18.0375 28.238C16.9578 27.919 15.9974 27.3218 15.2395 26.5293L9.03125 32.7376L11.2846 34.9909L18.0375 28.238Z" fill="#F97316"/>
<path d="M15.1867 26.4729C14.4418 25.6753 13.8992 24.6864 13.6409 23.5879L5.06445 25.886L5.88924 28.9641L15.1867 26.4729Z" fill="#F97316"/>
<path d="M43.8961 21.1942C43.0123 21.1942 42.2203 21.0507 41.5201 20.7638C40.8199 20.4768 40.2574 20.0521 39.8327 19.4896C39.4195 18.9272 39.2014 18.2499 39.1784 17.4579H42.3121C42.358 17.9056 42.513 18.2499 42.777 18.491C43.041 18.7206 43.3853 18.8354 43.8101 18.8354C44.2462 18.8354 44.5906 18.7378 44.8431 18.5426C45.0957 18.336 45.2219 18.0548 45.2219 17.699C45.2219 17.4005 45.1186 17.1537 44.912 16.9586C44.7169 16.7634 44.4701 16.6027 44.1716 16.4765C43.8847 16.3502 43.4714 16.2067 42.9319 16.046C42.1514 15.805 41.5143 15.5639 41.0207 15.3229C40.5271 15.0818 40.1024 14.726 39.7466 14.2554C39.3908 13.7847 39.2128 13.1706 39.2128 12.413C39.2128 11.2881 39.6203 10.41 40.4353 9.77866C41.2503 9.13586 42.3121 8.81445 43.6207 8.81445C44.9522 8.81445 46.0254 9.13586 46.8404 9.77866C47.6554 10.41 48.0916 11.2939 48.149 12.4302H44.9637C44.9407 12.04 44.7972 11.7358 44.5332 11.5177C44.2692 11.2881 43.9306 11.1733 43.5173 11.1733C43.1615 11.1733 42.8745 11.2709 42.6564 11.466C42.4383 11.6497 42.3293 11.9194 42.3293 12.2753C42.3293 12.6656 42.513 12.9697 42.8803 13.1878C43.2476 13.4059 43.8215 13.6412 44.6021 13.8938C45.3826 14.1578 46.014 14.4103 46.4961 14.6514C46.9897 14.8924 47.4144 15.2425 47.7702 15.7017C48.126 16.1608 48.304 16.752 48.304 17.4751C48.304 18.1639 48.126 18.7894 47.7702 19.3519C47.4258 19.9144 46.9208 20.362 46.255 20.6949C45.5893 21.0278 44.803 21.1942 43.8961 21.1942Z" fill="#3C2B1F"/>
<path d="M59.4136 11.466L53.3873 25.6365H50.2192L52.4231 20.7466L48.5146 11.466H51.8033L54.0244 17.4751L56.2283 11.466H59.4136Z" fill="#3C2B1F"/>
<path d="M65.8159 11.3627C66.9408 11.3627 67.8362 11.73 68.5019 12.4647C69.1792 13.1878 69.5178 14.1865 69.5178 15.4606V21.0737H66.5907V15.8566C66.5907 15.2138 66.4243 14.7145 66.0914 14.3587C65.7585 14.0028 65.3109 13.8249 64.7484 13.8249C64.1859 13.8249 63.7383 14.0028 63.4054 14.3587C63.0725 14.7145 62.9061 15.2138 62.9061 15.8566V21.0737H59.9618V11.466H62.9061V12.7402C63.2045 12.3155 63.6063 11.9826 64.1113 11.7415C64.6164 11.489 65.1846 11.3627 65.8159 11.3627Z" fill="#3C2B1F"/>
<path d="M70.4618 16.2699C70.4618 15.2712 70.6627 14.3988 71.0645 13.6527C71.4777 12.9066 72.0459 12.3327 72.769 11.9309C73.5037 11.5292 74.3416 11.3283 75.2829 11.3283C76.4881 11.3283 77.4925 11.644 78.296 12.2753C79.111 12.9066 79.6448 13.7962 79.8973 14.9441H76.7636C76.4996 14.2094 75.9888 13.8421 75.2312 13.8421C74.6917 13.8421 74.2613 14.0545 73.9399 14.4792C73.6185 14.8924 73.4578 15.4893 73.4578 16.2699C73.4578 17.0504 73.6185 17.653 73.9399 18.0778C74.2613 18.491 74.6917 18.6976 75.2312 18.6976C75.9888 18.6976 76.4996 18.3303 76.7636 17.5957H79.8973C79.6448 18.7206 79.111 19.6044 78.296 20.2472C77.4811 20.89 76.4767 21.2114 75.2829 21.2114C74.3416 21.2114 73.5037 21.0106 72.769 20.6088C72.0459 20.2071 71.4777 19.6331 71.0645 18.887C70.6627 18.1409 70.4618 17.2685 70.4618 16.2699Z" fill="#3C2B1F"/>
<path d="M85.3291 21.2114C84.3878 21.2114 83.5384 21.0106 82.7808 20.6088C82.0347 20.2071 81.4435 19.6331 81.0073 18.887C80.5826 18.1409 80.3703 17.2685 80.3703 16.2699C80.3703 15.2827 80.5884 14.4161 81.0246 13.6699C81.4608 12.9123 82.0576 12.3327 82.8152 11.9309C83.5728 11.5292 84.4223 11.3283 85.3635 11.3283C86.3048 11.3283 87.1542 11.5292 87.9118 11.9309C88.6694 12.3327 89.2663 12.9123 89.7025 13.6699C90.1386 14.4161 90.3567 15.2827 90.3567 16.2699C90.3567 17.257 90.1329 18.1294 89.6852 18.887C89.249 19.6331 88.6464 20.2071 87.8773 20.6088C87.1198 21.0106 86.2703 21.2114 85.3291 21.2114ZM85.3291 18.6632C85.8915 18.6632 86.3679 18.4566 86.7582 18.0433C87.1599 17.6301 87.3608 17.0389 87.3608 16.2699C87.3608 15.5008 87.1657 14.9096 86.7754 14.4964C86.3966 14.0832 85.926 13.8766 85.3635 13.8766C84.7896 13.8766 84.3132 14.0832 83.9344 14.4964C83.5556 14.8982 83.3662 15.4893 83.3662 16.2699C83.3662 17.0389 83.5499 17.6301 83.9172 18.0433C84.296 18.4566 84.7666 18.6632 85.3291 18.6632Z" fill="#3C2B1F"/>
<path d="M94.3465 13.0673C94.6908 12.5393 95.1213 12.1261 95.6378 11.8276C96.1544 11.5177 96.7283 11.3627 97.3596 11.3627V14.4792H96.5504C95.8158 14.4792 95.2648 14.6399 94.8975 14.9613C94.5301 15.2712 94.3465 15.8222 94.3465 16.6142V21.0737H91.4022V11.466H94.3465V13.0673Z" fill="#3C2B1F"/>
<path d="M107.307 16.1149C107.307 16.3904 107.29 16.6774 107.255 16.9758H100.592C100.638 17.5727 100.827 18.0318 101.16 18.3532C101.505 18.6632 101.924 18.8181 102.417 18.8181C103.152 18.8181 103.663 18.5082 103.95 17.8884H107.083C106.923 18.5197 106.63 19.0879 106.205 19.5929C105.792 20.098 105.27 20.494 104.638 20.781C104.007 21.068 103.301 21.2114 102.52 21.2114C101.579 21.2114 100.741 21.0106 100.007 20.6088C99.272 20.2071 98.6981 19.6331 98.2848 18.887C97.8716 18.1409 97.665 17.2685 97.665 16.2699C97.665 15.2712 97.8659 14.3988 98.2676 13.6527C98.6809 12.9066 99.2548 12.3327 99.9894 11.9309C100.724 11.5292 101.568 11.3283 102.52 11.3283C103.45 11.3283 104.277 11.5234 105 11.9137C105.723 12.304 106.285 12.8607 106.687 13.5839C107.1 14.307 107.307 15.1507 107.307 16.1149ZM104.294 15.3401C104.294 14.835 104.122 14.4333 103.777 14.1348C103.433 13.8364 103.003 13.6872 102.486 13.6872C101.992 13.6872 101.573 13.8306 101.229 14.1176C100.896 14.4046 100.69 14.8121 100.609 15.3401H104.294Z" fill="#3C2B1F"/>
<path d="M39.0234 29.1004C39.0234 27.9067 39.2817 26.8449 39.7982 25.9151C40.3148 24.9738 41.0322 24.2449 41.9505 23.7284C42.8803 23.2004 43.9306 22.9364 45.1014 22.9364C46.5362 22.9364 47.7645 23.3152 48.7861 24.0728C49.8077 24.8304 50.4907 25.8634 50.835 27.172H47.598C47.357 26.667 47.0126 26.2824 46.5649 26.0184C46.1287 25.7544 45.6294 25.6224 45.067 25.6224C44.1602 25.6224 43.4255 25.9381 42.8631 26.5694C42.3006 27.2007 42.0194 28.0444 42.0194 29.1004C42.0194 30.1565 42.3006 31.0002 42.8631 31.6315C43.4255 32.2628 44.1602 32.5785 45.067 32.5785C45.6294 32.5785 46.1287 32.4465 46.5649 32.1825C47.0126 31.9185 47.357 31.5339 47.598 31.0289H50.835C50.4907 32.3374 49.8077 33.3705 48.7861 34.1281C47.7645 34.8742 46.5362 35.2473 45.1014 35.2473C43.9306 35.2473 42.8803 34.989 41.9505 34.4725C41.0322 33.9444 40.3148 33.2155 39.7982 32.2858C39.2817 31.356 39.0234 30.2942 39.0234 29.1004Z" fill="#3C2B1F"/>
<path d="M56.4949 35.2989C55.5537 35.2989 54.7042 35.0981 53.9466 34.6963C53.2005 34.2945 52.6094 33.7206 52.1732 32.9745C51.7485 32.2284 51.5361 31.356 51.5361 30.3574C51.5361 29.3702 51.7542 28.5035 52.1904 27.7574C52.6266 26.9998 53.2235 26.4202 53.9811 26.0184C54.7387 25.6167 55.5881 25.4158 56.5293 25.4158C57.4706 25.4158 58.32 25.6167 59.0776 26.0184C59.8352 26.4202 60.4321 26.9998 60.8683 27.7574C61.3045 28.5035 61.5226 29.3702 61.5226 30.3574C61.5226 31.3445 61.2987 32.2169 60.8511 32.9745C60.4149 33.7206 59.8123 34.2945 59.0432 34.6963C58.2856 35.0981 57.4362 35.2989 56.4949 35.2989ZM56.4949 32.7507C57.0574 32.7507 57.5337 32.544 57.924 32.1308C58.3258 31.7176 58.5266 31.1264 58.5266 30.3574C58.5266 29.5883 58.3315 28.9971 57.9412 28.5839C57.5624 28.1707 57.0918 27.964 56.5293 27.964C55.9554 27.964 55.479 28.1707 55.1002 28.5839C54.7214 28.9857 54.5321 29.5768 54.5321 30.3574C54.5321 31.1264 54.7157 31.7176 55.083 32.1308C55.4618 32.544 55.9325 32.7507 56.4949 32.7507Z" fill="#3C2B1F"/>
<path d="M68.4222 25.4502C69.5471 25.4502 70.4424 25.8175 71.1082 26.5522C71.7854 27.2753 72.124 28.274 72.124 29.5481V35.1612H69.197V29.9441C69.197 29.3013 69.0305 28.802 68.6977 28.4462C68.3648 28.0903 67.9171 27.9124 67.3546 27.9124C66.7922 27.9124 66.3445 28.0903 66.0116 28.4462C65.6788 28.802 65.5123 29.3013 65.5123 29.9441V35.1612H62.568V25.5535H65.5123V26.8277C65.8108 26.4029 66.2125 26.0701 66.7176 25.829C67.2226 25.5765 67.7908 25.4502 68.4222 25.4502Z" fill="#3C2B1F"/>
<path d="M77.562 35.2989C76.724 35.2989 75.9779 35.1555 75.3236 34.8685C74.6694 34.5815 74.1528 34.1912 73.774 33.6977C73.3952 33.1926 73.1829 32.6301 73.1369 32.0103H76.0468C76.0812 32.3432 76.2362 32.6129 76.5117 32.8195C76.7872 33.0262 77.1258 33.1295 77.5275 33.1295C77.8949 33.1295 78.1761 33.0606 78.3712 32.9228C78.5779 32.7736 78.6812 32.5842 78.6812 32.3546C78.6812 32.0792 78.5377 31.8783 78.2507 31.752C77.9637 31.6143 77.4989 31.465 76.856 31.3043C76.1673 31.1436 75.5934 30.9772 75.1342 30.805C74.6751 30.6214 74.2791 30.3401 73.9462 29.9613C73.6133 29.5711 73.4469 29.0488 73.4469 28.3945C73.4469 27.8435 73.5961 27.3442 73.8945 26.8965C74.2045 26.4374 74.6521 26.0758 75.2376 25.8118C75.8344 25.5478 76.5404 25.4158 77.3554 25.4158C78.5606 25.4158 79.5076 25.7142 80.1963 26.3111C80.8965 26.908 81.2983 27.7 81.4016 28.6872H78.6812C78.6352 28.3543 78.486 28.0903 78.2335 27.8952C77.9924 27.7 77.671 27.6025 77.2693 27.6025C76.9249 27.6025 76.6609 27.6713 76.4772 27.8091C76.2936 27.9354 76.2018 28.1133 76.2018 28.3428C76.2018 28.6183 76.3452 28.8249 76.6322 28.9627C76.9307 29.1004 77.3898 29.2382 78.0097 29.3759C78.7213 29.5596 79.301 29.7432 79.7487 29.9269C80.1963 30.0991 80.5866 30.3861 80.9195 30.7878C81.2639 31.1781 81.4418 31.7061 81.4533 32.3719C81.4533 32.9343 81.2926 33.4394 80.9712 33.8871C80.6612 34.3232 80.2078 34.6676 79.6109 34.9201C79.0255 35.1727 78.3425 35.2989 77.562 35.2989Z" fill="#3C2B1F"/>
<path d="M92.2252 25.5535V35.1612H89.2809V33.8526C88.9824 34.2773 88.5749 34.6217 88.0584 34.8857C87.5533 35.1382 86.9909 35.2645 86.371 35.2645C85.6364 35.2645 84.9879 35.1038 84.4254 34.7824C83.8629 34.4495 83.4267 33.9731 83.1168 33.3533C82.8069 32.7334 82.6519 32.0045 82.6519 31.1666V25.5535H85.579V30.7706C85.579 31.4134 85.7454 31.9127 86.0783 32.2686C86.4112 32.6244 86.8589 32.8023 87.4213 32.8023C87.9953 32.8023 88.4487 32.6244 88.7816 32.2686C89.1144 31.9127 89.2809 31.4134 89.2809 30.7706V25.5535H92.2252Z" fill="#3C2B1F"/>
<path d="M96.7678 22.4198V35.1612H93.8235V22.4198H96.7678Z" fill="#3C2B1F"/>
<path d="M103.74 32.6646V35.1612H102.242C101.174 35.1612 100.342 34.9029 99.7451 34.3864C99.1483 33.8584 98.8498 33.0032 98.8498 31.8209V27.9985H97.679V25.5535H98.8498V23.2119H101.794V25.5535H103.723V27.9985H101.794V31.8553C101.794 32.1423 101.863 32.3489 102.001 32.4752C102.138 32.6014 102.368 32.6646 102.689 32.6646H103.74Z" fill="#3C2B1F"/>
<path d="M106.344 24.5549C105.827 24.5549 105.403 24.4057 105.07 24.1072C104.748 23.7973 104.588 23.4185 104.588 22.9708C104.588 22.5117 104.748 22.1329 105.07 21.8344C105.403 21.5245 105.827 21.3695 106.344 21.3695C106.849 21.3695 107.262 21.5245 107.584 21.8344C107.917 22.1329 108.083 22.5117 108.083 22.9708C108.083 23.4185 107.917 23.7973 107.584 24.1072C107.262 24.4057 106.849 24.5549 106.344 24.5549ZM107.807 25.5535V35.1612H104.863V25.5535H107.807Z" fill="#3C2B1F"/>
<path d="M115.279 25.4502C116.404 25.4502 117.299 25.8175 117.965 26.5522C118.642 27.2753 118.981 28.274 118.981 29.5481V35.1612H116.054V29.9441C116.054 29.3013 115.887 28.802 115.554 28.4462C115.221 28.0903 114.774 27.9124 114.211 27.9124C113.649 27.9124 113.201 28.0903 112.868 28.4462C112.535 28.802 112.369 29.3013 112.369 29.9441V35.1612H109.425V25.5535H112.369V26.8277C112.667 26.4029 113.069 26.0701 113.574 25.829C114.079 25.5765 114.647 25.4502 115.279 25.4502Z" fill="#3C2B1F"/>
<path d="M124.16 25.4158C124.838 25.4158 125.429 25.5535 125.934 25.829C126.45 26.1045 126.846 26.4661 127.122 26.9137V25.5535H130.066V35.144C130.066 36.0278 129.888 36.8256 129.532 37.5373C129.188 38.2604 128.654 38.8344 127.931 39.2591C127.219 39.6838 126.33 39.8962 125.262 39.8962C123.839 39.8962 122.685 39.5575 121.801 38.8803C120.918 38.2145 120.413 37.3077 120.286 36.1598H123.196C123.288 36.5272 123.506 36.8141 123.85 37.0207C124.195 37.2388 124.619 37.3479 125.125 37.3479C125.733 37.3479 126.215 37.17 126.571 36.8141C126.938 36.4698 127.122 35.913 127.122 35.144V33.7837C126.835 34.2314 126.439 34.5987 125.934 34.8857C125.429 35.1612 124.838 35.2989 124.16 35.2989C123.368 35.2989 122.651 35.0981 122.008 34.6963C121.365 34.2831 120.854 33.7034 120.476 32.9573C120.108 32.1997 119.925 31.3273 119.925 30.3401C119.925 29.353 120.108 28.4863 120.476 27.7402C120.854 26.9941 121.365 26.4202 122.008 26.0184C122.651 25.6167 123.368 25.4158 124.16 25.4158ZM127.122 30.3574C127.122 29.6227 126.915 29.043 126.502 28.6183C126.1 28.1936 125.607 27.9813 125.021 27.9813C124.436 27.9813 123.936 28.1936 123.523 28.6183C123.122 29.0316 122.921 29.6055 122.921 30.3401C122.921 31.0748 123.122 31.6602 123.523 32.0964C123.936 32.5211 124.436 32.7334 125.021 32.7334C125.607 32.7334 126.1 32.5211 126.502 32.0964C126.915 31.6717 127.122 31.092 127.122 30.3574Z" fill="#3C2B1F"/>
</svg>
