<svg width="141" height="48" viewBox="0 0 141 48" fill="none" xmlns="http://www.w3.org/2000/svg">
<g clip-path="url(#clip0_1428_5770)">
<path d="M24.236 7.02987L21.1579 6.20508L18.5639 15.886L16.222 7.146L13.1438 7.97079L15.6741 17.4137L9.37181 11.1114L7.11845 13.3648L14.0313 20.2777L5.42245 17.9709L4.59766 21.049L14.0039 23.5695C13.8962 23.105 13.8392 22.621 13.8392 22.1237C13.8392 18.6037 16.6927 15.7502 20.2127 15.7502C23.7327 15.7502 26.5862 18.6037 26.5862 22.1237C26.5862 22.6178 26.5299 23.0988 26.4236 23.5605L34.9721 25.8511L35.7968 22.773L26.3532 20.2425L34.9626 17.9356L34.1378 14.8575L24.6946 17.3878L30.9968 11.0855L28.7435 8.83218L21.9265 15.6492L24.236 7.02987Z" fill="white"/>
<path d="M26.4156 23.5957C26.1517 24.7114 25.5946 25.7138 24.8301 26.5168L31.0231 32.7099L33.2765 30.4565L26.4156 23.5957Z" fill="white"/>
<path d="M24.7659 26.582C23.9922 27.3723 23.0144 27.962 21.918 28.2659L24.1715 36.6761L27.2496 35.8513L24.7659 26.582Z" fill="white"/>
<path d="M21.8048 28.2965C21.296 28.4273 20.7628 28.4968 20.2133 28.4968C19.6246 28.4968 19.0546 28.417 18.5134 28.2676L16.2578 36.6855L19.3359 37.5102L21.8048 28.2965Z" fill="white"/>
<path d="M18.4047 28.238C17.325 27.919 16.3646 27.3218 15.6067 26.5293L9.39844 32.7376L11.6518 34.9909L18.4047 28.238Z" fill="white"/>
<path d="M15.5539 26.4729C14.8089 25.6753 14.2663 24.6864 14.0081 23.5879L5.43164 25.886L6.25642 28.9641L15.5539 26.4729Z" fill="white"/>
<path d="M44.2633 21.1942C43.3795 21.1942 42.5874 21.0507 41.8872 20.7638C41.187 20.4768 40.6246 20.0521 40.1999 19.4896C39.7866 18.9272 39.5685 18.2499 39.5456 17.4579H42.6793C42.7252 17.9056 42.8801 18.2499 43.1442 18.491C43.4082 18.7206 43.7525 18.8354 44.1772 18.8354C44.6134 18.8354 44.9578 18.7378 45.2103 18.5426C45.4629 18.336 45.5891 18.0548 45.5891 17.699C45.5891 17.4005 45.4858 17.1537 45.2792 16.9586C45.0841 16.7634 44.8373 16.6027 44.5388 16.4765C44.2519 16.3502 43.8386 16.2067 43.2991 16.046C42.5186 15.805 41.8815 15.5639 41.3879 15.3229C40.8943 15.0818 40.4696 14.726 40.1138 14.2554C39.7579 13.7847 39.58 13.1706 39.58 12.413C39.58 11.2881 39.9875 10.41 40.8025 9.77866C41.6175 9.13586 42.6793 8.81445 43.9878 8.81445C45.3194 8.81445 46.3926 9.13586 47.2076 9.77866C48.0226 10.41 48.4588 11.2939 48.5162 12.4302H45.3308C45.3079 12.04 45.1644 11.7358 44.9004 11.5177C44.6364 11.2881 44.2978 11.1733 43.8845 11.1733C43.5287 11.1733 43.2417 11.2709 43.0236 11.466C42.8055 11.6497 42.6965 11.9194 42.6965 12.2753C42.6965 12.6656 42.8801 12.9697 43.2475 13.1878C43.6148 13.4059 44.1887 13.6412 44.9693 13.8938C45.7498 14.1578 46.3812 14.4103 46.8633 14.6514C47.3568 14.8924 47.7816 15.2425 48.1374 15.7017C48.4932 16.1608 48.6711 16.752 48.6711 17.4751C48.6711 18.1639 48.4932 18.7894 48.1374 19.3519C47.793 19.9144 47.288 20.362 46.6222 20.6949C45.9564 21.0278 45.1701 21.1942 44.2633 21.1942Z" fill="white"/>
<path d="M59.7808 11.466L53.7545 25.6365H50.5864L52.7903 20.7466L48.8818 11.466H52.1704L54.3916 17.4751L56.5955 11.466H59.7808Z" fill="white"/>
<path d="M66.1831 11.3627C67.308 11.3627 68.2034 11.73 68.8691 12.4647C69.5464 13.1878 69.885 14.1865 69.885 15.4606V21.0737H66.9579V15.8566C66.9579 15.2138 66.7915 14.7145 66.4586 14.3587C66.1257 14.0028 65.678 13.8249 65.1156 13.8249C64.5531 13.8249 64.1055 14.0028 63.7726 14.3587C63.4397 14.7145 63.2733 15.2138 63.2733 15.8566V21.0737H60.329V11.466H63.2733V12.7402C63.5717 12.3155 63.9735 11.9826 64.4785 11.7415C64.9836 11.489 65.5518 11.3627 66.1831 11.3627Z" fill="white"/>
<path d="M70.829 16.2699C70.829 15.2712 71.0299 14.3988 71.4317 13.6527C71.8449 12.9066 72.4131 12.3327 73.1362 11.9309C73.8709 11.5292 74.7088 11.3283 75.6501 11.3283C76.8553 11.3283 77.8597 11.644 78.6632 12.2753C79.4782 12.9066 80.012 13.7962 80.2645 14.9441H77.1308C76.8668 14.2094 76.356 13.8421 75.5984 13.8421C75.0589 13.8421 74.6285 14.0545 74.3071 14.4792C73.9857 14.8924 73.825 15.4893 73.825 16.2699C73.825 17.0504 73.9857 17.653 74.3071 18.0778C74.6285 18.491 75.0589 18.6976 75.5984 18.6976C76.356 18.6976 76.8668 18.3303 77.1308 17.5957H80.2645C80.012 18.7206 79.4782 19.6044 78.6632 20.2472C77.8482 20.89 76.8439 21.2114 75.6501 21.2114C74.7088 21.2114 73.8709 21.0106 73.1362 20.6088C72.4131 20.2071 71.8449 19.6331 71.4317 18.887C71.0299 18.1409 70.829 17.2685 70.829 16.2699Z" fill="white"/>
<path d="M85.6963 21.2114C84.755 21.2114 83.9056 21.0106 83.148 20.6088C82.4019 20.2071 81.8107 19.6331 81.3745 18.887C80.9498 18.1409 80.7375 17.2685 80.7375 16.2699C80.7375 15.2827 80.9556 14.4161 81.3917 13.6699C81.8279 12.9123 82.4248 12.3327 83.1824 11.9309C83.94 11.5292 84.7894 11.3283 85.7307 11.3283C86.672 11.3283 87.5214 11.5292 88.279 11.9309C89.0366 12.3327 89.6335 12.9123 90.0696 13.6699C90.5058 14.4161 90.7239 15.2827 90.7239 16.2699C90.7239 17.257 90.5001 18.1294 90.0524 18.887C89.6162 19.6331 89.0136 20.2071 88.2445 20.6088C87.4869 21.0106 86.6375 21.2114 85.6963 21.2114ZM85.6963 18.6632C86.2587 18.6632 86.7351 18.4566 87.1254 18.0433C87.5271 17.6301 87.728 17.0389 87.728 16.2699C87.728 15.5008 87.5329 14.9096 87.1426 14.4964C86.7638 14.0832 86.2932 13.8766 85.7307 13.8766C85.1568 13.8766 84.6804 14.0832 84.3016 14.4964C83.9228 14.8982 83.7334 15.4893 83.7334 16.2699C83.7334 17.0389 83.9171 17.6301 84.2844 18.0433C84.6632 18.4566 85.1338 18.6632 85.6963 18.6632Z" fill="white"/>
<path d="M94.7137 13.0673C95.058 12.5393 95.4885 12.1261 96.005 11.8276C96.5216 11.5177 97.0955 11.3627 97.7268 11.3627V14.4792H96.9176C96.1829 14.4792 95.632 14.6399 95.2647 14.9613C94.8973 15.2712 94.7137 15.8222 94.7137 16.6142V21.0737H91.7694V11.466H94.7137V13.0673Z" fill="white"/>
<path d="M107.674 16.1149C107.674 16.3904 107.657 16.6774 107.623 16.9758H100.959C101.005 17.5727 101.195 18.0318 101.527 18.3532C101.872 18.6632 102.291 18.8181 102.784 18.8181C103.519 18.8181 104.03 18.5082 104.317 17.8884H107.45C107.29 18.5197 106.997 19.0879 106.572 19.5929C106.159 20.098 105.637 20.494 105.005 20.781C104.374 21.068 103.668 21.2114 102.888 21.2114C101.946 21.2114 101.108 21.0106 100.374 20.6088C99.6392 20.2071 99.0653 19.6331 98.652 18.887C98.2388 18.1409 98.0322 17.2685 98.0322 16.2699C98.0322 15.2712 98.2331 14.3988 98.6348 13.6527C99.048 12.9066 99.622 12.3327 100.357 11.9309C101.091 11.5292 101.935 11.3283 102.888 11.3283C103.817 11.3283 104.644 11.5234 105.367 11.9137C106.09 12.304 106.653 12.8607 107.054 13.5839C107.468 14.307 107.674 15.1507 107.674 16.1149ZM104.661 15.3401C104.661 14.835 104.489 14.4333 104.145 14.1348C103.8 13.8364 103.37 13.6872 102.853 13.6872C102.36 13.6872 101.941 13.8306 101.596 14.1176C101.263 14.4046 101.057 14.8121 100.976 15.3401H104.661Z" fill="white"/>
<path d="M39.3906 29.1004C39.3906 27.9067 39.6489 26.8449 40.1654 25.9151C40.682 24.9738 41.3994 24.2449 42.3177 23.7284C43.2475 23.2004 44.2978 22.9364 45.4686 22.9364C46.9034 22.9364 48.1317 23.3152 49.1533 24.0728C50.1749 24.8304 50.8578 25.8634 51.2022 27.172H47.9652C47.7242 26.667 47.3798 26.2824 46.9321 26.0184C46.4959 25.7544 45.9966 25.6224 45.4342 25.6224C44.5273 25.6224 43.7927 25.9381 43.2302 26.5694C42.6678 27.2007 42.3866 28.0444 42.3866 29.1004C42.3866 30.1565 42.6678 31.0002 43.2302 31.6315C43.7927 32.2628 44.5273 32.5785 45.4342 32.5785C45.9966 32.5785 46.4959 32.4465 46.9321 32.1825C47.3798 31.9185 47.7242 31.5339 47.9652 31.0289H51.2022C50.8578 32.3374 50.1749 33.3705 49.1533 34.1281C48.1317 34.8742 46.9034 35.2473 45.4686 35.2473C44.2978 35.2473 43.2475 34.989 42.3177 34.4725C41.3994 33.9444 40.682 33.2156 40.1654 32.2858C39.6489 31.356 39.3906 30.2942 39.3906 29.1004Z" fill="white"/>
<path d="M56.8621 35.2989C55.9208 35.2989 55.0714 35.0981 54.3138 34.6963C53.5677 34.2945 52.9766 33.7206 52.5404 32.9745C52.1157 32.2284 51.9033 31.356 51.9033 30.3574C51.9033 29.3702 52.1214 28.5035 52.5576 27.7574C52.9938 26.9998 53.5907 26.4202 54.3483 26.0184C55.1059 25.6167 55.9553 25.4158 56.8965 25.4158C57.8378 25.4158 58.6872 25.6167 59.4448 26.0184C60.2024 26.4202 60.7993 26.9998 61.2355 27.7574C61.6717 28.5035 61.8898 29.3702 61.8898 30.3574C61.8898 31.3445 61.6659 32.2169 61.2183 32.9745C60.7821 33.7206 60.1794 34.2945 59.4104 34.6963C58.6528 35.0981 57.8033 35.2989 56.8621 35.2989ZM56.8621 32.7507C57.4246 32.7507 57.9009 32.544 58.2912 32.1308C58.6929 31.7176 58.8938 31.1264 58.8938 30.3574C58.8938 29.5883 58.6987 28.9971 58.3084 28.5839C57.9296 28.1707 57.459 27.964 56.8965 27.964C56.3226 27.964 55.8462 28.1707 55.4674 28.5839C55.0886 28.9857 54.8992 29.5768 54.8992 30.3574C54.8992 31.1264 55.0829 31.7176 55.4502 32.1308C55.829 32.544 56.2996 32.7507 56.8621 32.7507Z" fill="white"/>
<path d="M68.7894 25.4502C69.9143 25.4502 70.8096 25.8175 71.4754 26.5522C72.1526 27.2753 72.4912 28.274 72.4912 29.5481V35.1612H69.5642V29.9441C69.5642 29.3013 69.3977 28.802 69.0648 28.4462C68.732 28.0903 68.2843 27.9124 67.7218 27.9124C67.1594 27.9124 66.7117 28.0903 66.3788 28.4462C66.0459 28.802 65.8795 29.3013 65.8795 29.9441V35.1612H62.9352V25.5535H65.8795V26.8277C66.178 26.4029 66.5797 26.0701 67.0848 25.829C67.5898 25.5765 68.158 25.4502 68.7894 25.4502Z" fill="white"/>
<path d="M77.9292 35.2989C77.0912 35.2989 76.3451 35.1555 75.6908 34.8685C75.0365 34.5815 74.52 34.1912 74.1412 33.6977C73.7624 33.1926 73.5501 32.6301 73.5041 32.0103H76.414C76.4484 32.3432 76.6034 32.6129 76.8789 32.8195C77.1544 33.0262 77.493 33.1295 77.8947 33.1295C78.2621 33.1295 78.5433 33.0606 78.7384 32.9228C78.945 32.7736 79.0483 32.5842 79.0483 32.3546C79.0483 32.0792 78.9049 31.8783 78.6179 31.752C78.3309 31.6143 77.866 31.465 77.2232 31.3043C76.5345 31.1436 75.9606 30.9772 75.5014 30.805C75.0423 30.6214 74.6463 30.3401 74.3134 29.9613C73.9805 29.5711 73.8141 29.0488 73.8141 28.3945C73.8141 27.8435 73.9633 27.3442 74.2617 26.8965C74.5717 26.4374 75.0193 26.0758 75.6047 25.8118C76.2016 25.5478 76.9076 25.4158 77.7226 25.4158C78.9278 25.4158 79.8748 25.7142 80.5635 26.3111C81.2637 26.908 81.6655 27.7 81.7688 28.6872H79.0483C79.0024 28.3543 78.8532 28.0903 78.6007 27.8952C78.3596 27.7 78.0382 27.6025 77.6365 27.6025C77.2921 27.6025 77.0281 27.6713 76.8444 27.8091C76.6608 27.9353 76.5689 28.1133 76.5689 28.3428C76.5689 28.6183 76.7124 28.8249 76.9994 28.9627C77.2978 29.1004 77.757 29.2382 78.3768 29.3759C79.0885 29.5596 79.6682 29.7432 80.1159 29.9269C80.5635 30.0991 80.9538 30.3861 81.2867 30.7878C81.6311 31.1781 81.809 31.7061 81.8205 32.3719C81.8205 32.9343 81.6598 33.4394 81.3383 33.8871C81.0284 34.3232 80.575 34.6676 79.9781 34.9201C79.3927 35.1727 78.7097 35.2989 77.9292 35.2989Z" fill="white"/>
<path d="M92.5924 25.5535V35.1612H89.6481V33.8526C89.3496 34.2773 88.9421 34.6217 88.4256 34.8857C87.9205 35.1382 87.3581 35.2645 86.7382 35.2645C86.0036 35.2645 85.355 35.1038 84.7926 34.7824C84.2301 34.4495 83.7939 33.9731 83.484 33.3533C83.1741 32.7334 83.0191 32.0045 83.0191 31.1666V25.5535H85.9462V30.7706C85.9462 31.4134 86.1126 31.9127 86.4455 32.2686C86.7784 32.6244 87.2261 32.8023 87.7885 32.8023C88.3625 32.8023 88.8159 32.6244 89.1487 32.2686C89.4816 31.9127 89.6481 31.4134 89.6481 30.7706V25.5535H92.5924Z" fill="white"/>
<path d="M97.135 22.4198V35.1612H94.1907V22.4198H97.135Z" fill="white"/>
<path d="M104.107 32.6646V35.1612H102.609C101.541 35.1612 100.709 34.9029 100.112 34.3864C99.5154 33.8584 99.217 33.0032 99.217 31.8209V27.9985H98.0462V25.5535H99.217V23.2119H102.161V25.5535H104.09V27.9985H102.161V31.8553C102.161 32.1423 102.23 32.3489 102.368 32.4752C102.506 32.6014 102.735 32.6646 103.057 32.6646H104.107Z" fill="white"/>
<path d="M106.711 24.5549C106.195 24.5549 105.77 24.4057 105.437 24.1072C105.116 23.7973 104.955 23.4185 104.955 22.9708C104.955 22.5117 105.116 22.1329 105.437 21.8344C105.77 21.5245 106.195 21.3695 106.711 21.3695C107.216 21.3695 107.629 21.5245 107.951 21.8344C108.284 22.1329 108.45 22.5117 108.45 22.9708C108.45 23.4185 108.284 23.7973 107.951 24.1072C107.629 24.4057 107.216 24.5549 106.711 24.5549ZM108.175 25.5535V35.1612H105.23V25.5535H108.175Z" fill="white"/>
<path d="M115.646 25.4502C116.771 25.4502 117.666 25.8175 118.332 26.5522C119.009 27.2753 119.348 28.274 119.348 29.5481V35.1612H116.421V29.9441C116.421 29.3013 116.254 28.802 115.921 28.4462C115.589 28.0903 115.141 27.9124 114.578 27.9124C114.016 27.9124 113.568 28.0903 113.235 28.4462C112.903 28.802 112.736 29.3013 112.736 29.9441V35.1612H109.792V25.5535H112.736V26.8277C113.035 26.4029 113.436 26.0701 113.941 25.829C114.446 25.5765 115.015 25.4502 115.646 25.4502Z" fill="white"/>
<path d="M124.528 25.4158C125.205 25.4158 125.796 25.5535 126.301 25.829C126.818 26.1045 127.214 26.4661 127.489 26.9137V25.5535H130.433V35.144C130.433 36.0278 130.255 36.8256 129.9 37.5373C129.555 38.2604 129.021 38.8344 128.298 39.2591C127.587 39.6838 126.697 39.8962 125.629 39.8962C124.206 39.8962 123.053 39.5575 122.169 38.8803C121.285 38.2145 120.78 37.3077 120.653 36.1598H123.563C123.655 36.5272 123.873 36.8141 124.218 37.0207C124.562 37.2388 124.987 37.3479 125.492 37.3479C126.1 37.3479 126.582 37.17 126.938 36.8141C127.305 36.4698 127.489 35.913 127.489 35.144V33.7837C127.202 34.2314 126.806 34.5987 126.301 34.8857C125.796 35.1612 125.205 35.2989 124.528 35.2989C123.735 35.2989 123.018 35.0981 122.375 34.6963C121.732 34.2831 121.222 33.7034 120.843 32.9573C120.476 32.1997 120.292 31.3273 120.292 30.3401C120.292 29.353 120.476 28.4863 120.843 27.7402C121.222 26.9941 121.732 26.4202 122.375 26.0184C123.018 25.6167 123.735 25.4158 124.528 25.4158ZM127.489 30.3574C127.489 29.6227 127.282 29.043 126.869 28.6183C126.467 28.1936 125.974 27.9813 125.388 27.9813C124.803 27.9813 124.304 28.1936 123.89 28.6183C123.489 29.0316 123.288 29.6055 123.288 30.3401C123.288 31.0748 123.489 31.6602 123.89 32.0964C124.304 32.5211 124.803 32.7334 125.388 32.7334C125.974 32.7334 126.467 32.5211 126.869 32.0964C127.282 31.6717 127.489 31.092 127.489 30.3574Z" fill="white"/>
</g>
<defs>
<clipPath id="clip0_1428_5770">
<rect width="132.266" height="36.0014" fill="white" transform="translate(4.36719 6)"/>
</clipPath>
</defs>
</svg>
