<svg width="57" height="39" viewBox="0 0 57 39" fill="none" xmlns="http://www.w3.org/2000/svg">
<g clip-path="url(#clip0_537_225)">
<g opacity="0.3">
<path d="M10.7147 15.265C10.988 14.1721 11.3522 12.9882 11.7165 11.8043C12.1719 10.7114 12.6272 9.52749 13.4469 8.61678C14.904 6.79535 17.0897 5.70249 19.1844 5.15606C20.1862 4.88285 21.188 4.7007 22.0987 4.60963C23.0094 4.51856 24.0112 4.42749 24.9219 4.42749C26.9255 4.42749 28.929 4.79178 30.8415 5.24713C33.5737 5.88463 36.3058 6.88642 38.7647 8.25249C40.2219 9.07213 41.679 10.165 42.954 11.2578C46.9612 14.7186 50.3308 19.9096 49.1469 26.2846C48.6005 29.3811 46.9612 32.3864 44.6844 34.2989C42.3165 36.2114 39.3112 36.94 36.7612 35.9382C33.4826 34.6632 31.388 30.8382 27.8362 30.2918C24.5576 29.8364 21.4612 32.4775 18.2737 33.2061C13.7201 34.2989 7.9826 31.2936 7.43617 26.2846C7.3451 25.2828 7.43617 24.19 7.80045 23.0061C8.07367 22.0953 8.43795 21.1846 8.80224 20.2739C9.53081 18.5436 10.2594 16.9953 10.7147 15.265Z" fill="#E55C87"/>
</g>
<mask id="mask0_537_225" style="mask-type:alpha" maskUnits="userSpaceOnUse" x="14" y="1" width="32" height="35">
<path d="M45.7771 1.78699H14.4485V35.3923H45.7771V1.78699Z" fill="white"/>
</mask>
<g mask="url(#mask0_537_225)">
<path d="M45.1396 26.1934C39.4021 26.1934 34.6663 21.4577 34.6663 15.7202V11.3488H38.4003C38.6735 11.3488 38.8556 11.1666 38.9467 10.9845C39.0378 10.7113 38.9467 10.438 38.7646 10.2559L30.4771 1.87733C30.386 1.78626 30.2038 1.69519 30.0217 1.69519C29.8396 1.69519 29.6574 1.78626 29.5663 1.87733L21.3699 10.347C21.1878 10.5291 21.0967 10.8023 21.1878 11.0755C21.2788 11.3488 21.5521 11.4398 21.7342 11.4398H25.4681V15.8113C25.4681 21.5488 20.8235 26.2845 15.086 26.2845C14.7217 26.2845 14.4485 26.5577 14.4485 26.922V34.8452C14.4485 35.2095 14.7217 35.4827 15.086 35.4827C21.0967 35.4827 26.4699 32.7505 30.1128 28.4702C33.6646 32.7505 39.1288 35.4827 45.1396 35.4827C45.5038 35.4827 45.7771 35.2095 45.7771 34.8452V26.922C45.7771 26.4666 45.5038 26.1934 45.1396 26.1934ZM30.1128 3.33448L36.9431 10.1648H34.1199C33.7556 10.1648 33.4824 10.438 33.4824 10.8023V15.8113C33.4824 19.7273 32.2074 23.3702 30.2038 26.3755C28.1092 23.3702 26.9253 19.7273 26.9253 15.8113V10.8023C26.9253 10.438 26.6521 10.1648 26.2878 10.1648H23.4646L30.1128 3.33448ZM15.7235 34.1166V27.4684C20.3681 27.1952 24.3753 24.1898 26.0146 20.0005C26.6521 22.7327 27.7449 25.1916 29.2931 27.3773C26.0146 31.3845 21.1878 33.9345 15.7235 34.1166ZM44.5021 34.1166C39.0378 33.9345 34.1199 31.2934 30.9324 27.3773C32.4806 25.1916 33.6646 22.7327 34.211 20.0005C35.8503 24.1898 39.7663 27.1952 44.5021 27.4684V34.1166Z" fill="#E55C87"/>
<path d="M15.086 15.5386C15.4503 15.5386 15.7235 15.2654 15.7235 14.9011V7.79753C15.7235 7.43325 15.4503 7.16003 15.086 7.16003C14.7217 7.16003 14.4485 7.43325 14.4485 7.79753V14.9011C14.4485 15.2654 14.7217 15.5386 15.086 15.5386Z" fill="#E55C87"/>
<path d="M18.8199 20.7291C19.1842 20.7291 19.4574 20.4559 19.4574 20.0916V15.3559C19.4574 14.9916 19.1842 14.7184 18.8199 14.7184C18.4556 14.7184 18.1824 14.9916 18.1824 15.3559V20.0916C18.1824 20.4559 18.5467 20.7291 18.8199 20.7291Z" fill="#E55C87"/>
<path d="M45.1397 7.16003C44.7754 7.16003 44.5022 7.43325 44.5022 7.79753V14.9011C44.5022 15.2654 44.7754 15.5386 45.1397 15.5386C45.504 15.5386 45.7772 15.2654 45.7772 14.9011V7.79753C45.7772 7.43325 45.4129 7.16003 45.1397 7.16003Z" fill="#E55C87"/>
<path d="M41.3145 20.7291C41.6788 20.7291 41.952 20.4559 41.952 20.0916V15.3559C41.952 14.9916 41.6788 14.7184 41.3145 14.7184C40.9502 14.7184 40.677 14.9916 40.677 15.3559V20.0916C40.677 20.4559 40.9502 20.7291 41.3145 20.7291Z" fill="#E55C87"/>
</g>
</g>
<defs>
<clipPath id="clip0_537_225">
<rect width="41.8929" height="38.25" fill="white" transform="translate(7.43604 0.329834)"/>
</clipPath>
</defs>
</svg>
