<svg width="57" height="39" viewBox="0 0 57 39" fill="none" xmlns="http://www.w3.org/2000/svg">
<g clip-path="url(#clip0_537_241)">
<g opacity="0.3">
<path d="M53.0117 16.1883C54.3898 17.9533 55.1666 19.9645 54.7406 22.5914C53.4377 30.6157 44.2919 36.0336 34.9457 36.7929C26.0506 37.5112 16.7044 34.9664 9.53809 30.6977C9.26245 30.5336 8.98683 30.3693 8.71121 30.1847C6.48115 28.7686 3.97547 27.0652 2.47206 25.0746C1.89575 24.3153 1.49484 23.597 1.29438 22.9198C1.09393 22.263 1.09393 21.6268 1.29438 21.0727C2.42194 17.7686 8.33536 16.291 11.4925 14.5876C15.0005 12.6791 18.0073 10.4831 20.5881 7.77418C23.0437 5.20888 25.9003 2.60254 29.759 1.47381C33.4674 0.386119 37.9776 0.837612 40.8591 3.17717C42.9137 4.86001 44.0665 7.24061 45.7954 9.14919C48.1006 11.735 51.1074 13.7462 53.0117 16.1883Z" fill="#FDC06A"/>
</g>
<mask id="mask0_537_241" style="mask-type:alpha" maskUnits="userSpaceOnUse" x="13" y="0" width="37" height="39">
<path d="M49.973 0.648193H13.2207V38.6679H49.973V0.648193Z" fill="white"/>
</mask>
<g mask="url(#mask0_537_241)">
<path d="M47.1141 27.2364C46.576 27.2596 46.1723 27.4795 45.8471 27.6646C45.5669 27.8265 45.3651 27.9423 45.0959 27.9423C45.0511 27.9423 44.939 27.896 44.8493 27.8381V24.02C44.8493 23.3489 44.569 22.7357 44.1318 22.3076C44.569 21.8795 44.8493 21.2778 44.8493 20.5952V16.7655C44.939 16.7076 45.04 16.6614 45.0959 16.6614C45.3763 16.6614 45.5669 16.777 45.8471 16.9391C46.1723 17.1242 46.5647 17.3555 47.1141 17.3671C47.8541 17.3903 48.5605 17.1126 49.0986 16.5688C49.648 16.0134 49.9732 15.2382 49.9732 14.4399C49.9732 13.6415 49.6592 12.8663 49.0986 12.3109C48.5605 11.7671 47.8541 11.4895 47.1141 11.5126C46.576 11.5357 46.1723 11.7556 45.8471 11.9407C45.5669 12.1027 45.3651 12.2183 45.0959 12.2183C45.0511 12.2183 44.939 12.1721 44.8493 12.1143V8.30766C44.8493 7.00023 43.8178 5.94734 42.5622 5.94734H40.6449C40.5776 5.85478 40.5327 5.73908 40.5327 5.68123C40.5327 5.39198 40.6449 5.19528 40.8019 4.90603C40.9813 4.57049 41.2054 4.16553 41.2167 3.59859C41.2391 2.83496 40.97 2.10603 40.4431 1.55067C39.9161 0.972158 39.1649 0.648193 38.3913 0.648193C37.6177 0.648193 36.8665 0.972158 36.3283 1.55067C35.8014 2.10603 35.5323 2.83496 35.5548 3.59859C35.5771 4.15396 35.7902 4.57049 35.9696 4.90603C36.1265 5.19528 36.2386 5.40354 36.2386 5.68123C36.2386 5.73908 36.1938 5.85478 36.1265 5.94734H30.6439C29.9712 5.94734 29.3658 6.24817 28.951 6.72254C28.5474 6.34073 28.0092 6.10932 27.4149 6.10932H23.715C23.6478 6.01676 23.6029 5.90106 23.6029 5.84321C23.6029 5.56553 23.715 5.35726 23.8719 5.06801C24.0514 4.73248 24.2756 4.32751 24.2868 3.76058C24.3205 2.99695 24.0514 2.26802 23.5244 1.71265C22.9863 1.14571 22.2351 0.810175 21.4615 0.810175C20.6878 0.810175 19.9366 1.13414 19.3984 1.71265C18.8715 2.26802 18.6025 2.99695 18.6248 3.76058C18.6473 4.31594 18.8603 4.73248 19.0397 5.06801C19.1966 5.35726 19.3088 5.56553 19.3088 5.84321C19.3088 5.90106 19.264 6.01676 19.1966 6.10932H15.4968C14.2523 6.09776 13.2207 7.16221 13.2207 8.46964V12.473C13.2207 12.5771 13.2432 12.6812 13.288 12.7854C13.6019 13.4333 14.3531 13.8035 14.8913 13.8035C15.5079 13.7919 15.934 13.549 16.2816 13.3523C16.5619 13.1902 16.7188 13.0977 16.9319 13.0977C17.3019 13.0861 17.6606 13.225 17.9297 13.5027C18.2213 13.7919 18.3894 14.2085 18.3894 14.625C18.3894 15.0415 18.2213 15.458 17.9297 15.7473C17.6495 16.025 17.3019 16.1638 16.9319 16.1523C16.7301 16.1407 16.5619 16.0597 16.2816 15.8978C15.934 15.7011 15.5079 15.4465 14.8913 15.4465H14.8801C14.3419 15.4465 13.6019 15.8283 13.2993 16.4647C13.2544 16.5572 13.2319 16.6614 13.2319 16.777V20.7803C13.2319 21.4167 13.4786 21.9837 13.8711 22.4117C13.4675 22.8051 13.2207 23.3836 13.2207 24.02V28.0232C13.2207 28.1274 13.2432 28.2315 13.288 28.3356C13.6019 28.9835 14.3419 29.3539 14.8913 29.3539C15.5079 29.3423 15.934 29.0993 16.2816 28.9026C16.5619 28.7406 16.7188 28.6481 16.9319 28.6481C17.3019 28.6365 17.6606 28.7754 17.9297 29.053C18.2213 29.3423 18.3894 29.7587 18.3894 30.1753C18.3894 30.5919 18.2213 31.0084 17.9297 31.2977C17.6495 31.5753 17.3019 31.7141 16.9319 31.7025C16.7301 31.6911 16.5619 31.61 16.2816 31.448C15.934 31.2513 15.5079 30.9968 14.8913 30.9968H14.8801C14.3419 30.9968 13.6019 31.3786 13.2993 32.015C13.2544 32.1075 13.2319 32.2117 13.2319 32.3274V36.3307C13.2319 37.6381 14.2634 38.691 15.5192 38.691H27.4373C28.0652 38.691 28.637 38.4249 29.0518 37.9968C29.4666 38.4249 30.0385 38.691 30.6664 38.691H42.5845C43.8514 38.691 44.8718 37.6265 44.8718 36.3307V32.5009C44.9615 32.4431 45.0623 32.3968 45.1184 32.3968C45.3987 32.3968 45.5892 32.5125 45.8696 32.6744C46.1948 32.8597 46.5871 33.091 47.1365 33.1026C47.8765 33.1257 48.5828 32.8481 49.121 32.3042C49.6704 31.7489 49.9955 30.9737 49.9955 30.1753C49.9955 29.3769 49.6816 28.6017 49.121 28.0464C48.5605 27.4911 47.8541 27.2134 47.1141 27.2364ZM30.6552 7.33577H36.3956C36.5301 7.33577 36.6535 7.30106 36.7655 7.22006C37.2589 6.89609 37.6065 6.23659 37.6065 5.65809C37.5952 5.02173 37.3598 4.58206 37.1693 4.22338C37.0122 3.93413 36.9226 3.77215 36.9226 3.55231C36.9114 3.1705 37.0459 2.80025 37.315 2.52256C37.5952 2.22175 37.9989 2.04818 38.4025 2.04818C38.8061 2.04818 39.2097 2.22175 39.4901 2.52256C39.7591 2.81182 39.8937 3.1705 39.8825 3.55231C39.8712 3.76058 39.7927 3.93413 39.6358 4.22338C39.4453 4.58206 39.1986 5.02173 39.1986 5.65809C39.1874 6.23659 39.5461 6.89609 40.0394 7.22006C40.1516 7.28949 40.2749 7.33577 40.4094 7.33577H42.5958C43.1115 7.33577 43.5375 7.77544 43.5375 8.30766V12.415C43.5375 12.5539 43.5824 12.6928 43.6609 12.8084C43.986 13.2944 44.6139 13.63 45.152 13.63C45.7687 13.6184 46.1948 13.3755 46.5422 13.1788C46.8226 13.0167 46.9796 12.9242 47.1926 12.9242C47.5626 12.9126 47.9213 13.0515 48.1905 13.3291C48.482 13.6184 48.6502 14.0349 48.6502 14.4514C48.6502 14.868 48.482 15.2845 48.1905 15.5738C47.9101 15.8514 47.5626 15.9903 47.1926 15.9787C46.9908 15.9672 46.8226 15.8862 46.5422 15.7241C46.1948 15.5274 45.7687 15.2729 45.152 15.2729C45.1408 15.2729 45.1408 15.2729 45.1297 15.2729C44.5915 15.2729 43.9747 15.62 43.6609 16.0945C43.5824 16.2101 43.5375 16.349 43.5375 16.4877V20.5952C43.5375 21.1275 42.9658 21.6365 42.2818 21.6481H40.6673C40.6001 21.5555 40.5552 21.4398 40.5552 21.382C40.5552 21.0927 40.6673 20.896 40.8242 20.6068C41.0036 20.2712 41.2279 19.8663 41.2391 19.2993C41.2615 18.5357 40.9924 17.8068 40.4655 17.2515C39.9273 16.6844 39.1761 16.349 38.4025 16.349C37.629 16.349 36.8777 16.673 36.3396 17.2515C35.8125 17.8068 35.5435 18.5357 35.5659 19.2993C35.5884 19.8547 35.8014 20.2712 35.9807 20.6068C36.1378 20.896 36.2499 21.1043 36.2499 21.382C36.2499 21.4398 36.205 21.5555 36.1378 21.6481H30.6552C30.1394 21.6481 29.6797 21.8216 29.2986 22.1109C29.5676 21.7291 29.7134 21.2547 29.7134 20.7457V16.9159C29.803 16.8581 29.904 16.8117 29.9601 16.8117C30.2403 16.8117 30.4309 16.9275 30.7112 17.0894C31.0364 17.2745 31.4287 17.506 31.9782 17.5176C32.7181 17.5407 33.4245 17.2629 33.9626 16.7192C34.512 16.1638 34.8372 15.3886 34.8372 14.5903C34.8372 13.7919 34.5232 13.0167 33.9626 12.4614C33.4245 11.9176 32.7181 11.6399 31.9782 11.663C31.44 11.6862 31.0364 11.906 30.7112 12.0911C30.4309 12.2531 30.2291 12.3688 29.9601 12.3688C29.9152 12.3688 29.803 12.3225 29.7134 12.2647C29.7134 12.2647 29.7134 8.29609 29.7134 8.27295C29.7134 7.76386 30.1394 7.33577 30.6552 7.33577ZM14.5662 16.9737C14.6559 16.8927 14.8016 16.8233 14.8689 16.8233C15.1492 16.8233 15.3398 16.9391 15.6201 17.101C15.9453 17.2861 16.3376 17.5176 16.887 17.5291C17.627 17.5522 18.3333 17.2745 18.8715 16.7308C19.4209 16.1754 19.746 15.4002 19.746 14.6019C19.746 13.8035 19.4322 13.0283 18.8715 12.473C18.3333 11.9291 17.627 11.6514 16.887 11.6746C16.3489 11.6977 15.9453 11.9176 15.6201 12.1027C15.3398 12.2647 15.138 12.3804 14.8689 12.3804C14.8016 12.3804 14.6559 12.3109 14.5662 12.2299V8.46964C14.5662 7.93742 14.9923 7.49775 15.5079 7.49775H19.4658C19.6003 7.49775 19.7237 7.46304 19.8358 7.38204C20.3291 7.05808 20.6767 6.39858 20.6767 5.82007C20.6654 5.18371 20.43 4.74404 20.2393 4.38536C20.0824 4.09611 19.9927 3.93413 19.9927 3.71429C19.9814 3.33248 20.116 2.96223 20.3852 2.68455C20.6654 2.38372 21.069 2.21017 21.4726 2.21017C21.8763 2.21017 22.2799 2.38372 22.5602 2.68455C22.8293 2.9738 22.9638 3.33248 22.9527 3.71429C22.9414 3.92256 22.8629 4.09611 22.706 4.38536C22.5153 4.74404 22.2687 5.18371 22.2687 5.82007C22.2574 6.39858 22.6163 7.05808 23.1096 7.38204C23.2217 7.45147 23.345 7.49775 23.4796 7.49775H27.4373C27.9531 7.49775 28.3792 7.93742 28.3792 8.46964V12.5771C28.3792 12.7159 28.424 12.8548 28.5025 12.9705C28.8276 13.4448 29.4443 13.7919 29.9712 13.7919C29.9824 13.7919 29.9824 13.7919 29.9937 13.7919C30.6103 13.7803 31.0364 13.5374 31.3839 13.3407C31.6642 13.1788 31.8212 13.0861 32.0343 13.0861C32.4042 13.0746 32.763 13.2134 33.032 13.4911C33.3235 13.7803 33.4917 14.1969 33.4917 14.6134C33.4917 15.0299 33.3235 15.4465 33.032 15.7357C32.7517 16.0134 32.4042 16.1523 32.0343 16.1407C31.8323 16.1291 31.6642 16.0481 31.3839 15.8862C31.0364 15.6895 30.6103 15.4349 29.9937 15.4349C29.4555 15.4349 28.8276 15.7705 28.5025 16.2564C28.424 16.3721 28.3792 16.5109 28.3792 16.6498V20.7572C28.3792 21.1853 28.1885 21.6481 27.4373 21.6481H25.5202C25.4528 21.5555 25.408 21.4398 25.408 21.382C25.408 21.0927 25.5202 20.896 25.6771 20.6068C25.8565 20.2712 26.0807 19.8663 26.0919 19.2993C26.1143 18.5357 25.8453 17.8068 25.3184 17.2515C24.7802 16.6844 24.029 16.349 23.2553 16.349C22.4817 16.349 21.7305 16.673 21.1924 17.2515C20.6654 17.8068 20.3963 18.5357 20.4188 19.2993C20.4411 19.8547 20.6542 20.2712 20.8336 20.6068C20.9906 20.896 21.1026 21.1043 21.1026 21.382C21.1026 21.4398 21.0578 21.5555 20.9906 21.6481H15.5079C15.4071 21.6481 14.5662 21.6944 14.5662 20.7572V16.9737ZM27.4262 37.2794H15.5079C14.9923 37.2794 14.5662 36.8397 14.5662 36.3075V32.5241C14.6559 32.4431 14.8016 32.3737 14.8689 32.3737C15.1492 32.3737 15.3398 32.4893 15.6201 32.6514C15.9453 32.8365 16.3376 33.0678 16.887 33.0794C17.627 33.1026 18.3333 32.8249 18.8715 32.2812C19.4209 31.7257 19.746 30.9505 19.746 30.1521C19.746 29.3539 19.4322 28.5787 18.8715 28.0232C18.3333 27.4795 17.627 27.2018 16.887 27.225C16.3489 27.248 15.9453 27.4679 15.6201 27.653C15.3398 27.8151 15.138 27.9307 14.8689 27.9307C14.8016 27.9307 14.6559 27.8613 14.5662 27.7803V24.02C14.5662 23.4877 14.9923 23.0481 15.5079 23.0481H21.2485C21.383 23.0481 21.5063 23.0134 21.6184 22.9324C22.1117 22.6084 22.4594 21.9489 22.4594 21.3704C22.4481 20.7341 22.2126 20.2944 22.022 19.9357C21.8651 19.6465 21.7754 19.4844 21.7754 19.2647C21.7641 18.8828 21.8987 18.5125 22.1678 18.2349C22.4481 17.934 22.8517 17.7605 23.2553 17.7605C23.659 17.7605 24.0626 17.934 24.3429 18.2349C24.612 18.5241 24.7465 18.8828 24.7353 19.2647C24.7241 19.4729 24.6456 19.6465 24.4887 19.9357C24.298 20.2944 24.0514 20.7341 24.0514 21.3704C24.0401 21.9489 24.399 22.6084 24.8923 22.9324C25.0044 23.0018 25.1277 23.0481 25.2623 23.0481H27.4485C27.9643 23.0481 28.3903 23.4877 28.3903 24.02V28.0232C28.3903 28.1274 28.4128 28.2315 28.4576 28.3356C28.7715 28.9835 29.5115 29.3539 30.0609 29.3539C30.6775 29.3423 31.1036 29.0993 31.4512 28.9026C31.7315 28.7406 31.8884 28.6481 32.1015 28.6481C32.4715 28.6365 32.8302 28.7754 33.0993 29.053C33.3909 29.3423 33.559 29.7587 33.559 30.1753C33.559 30.5919 33.3909 31.0084 33.0993 31.2977C32.8191 31.5753 32.4715 31.7141 32.1015 31.7025C31.8997 31.6911 31.7315 31.61 31.4512 31.448C31.1036 31.2513 30.6775 30.9968 30.0609 30.9968H30.0497C29.5115 30.9968 28.7715 31.3786 28.4689 32.015C28.424 32.1075 28.4015 32.2117 28.4015 32.3274V36.3307C28.3679 36.8397 27.9419 37.2794 27.4262 37.2794ZM48.168 31.2861C47.8877 31.5638 47.5401 31.7025 47.1701 31.6911C46.9683 31.6795 46.8001 31.5985 46.5199 31.4365C46.1723 31.2398 45.7463 30.9853 45.1297 30.9853C45.1184 30.9853 45.1184 30.9853 45.1072 30.9853C44.569 30.9853 43.9524 31.3323 43.6385 31.8067C43.5599 31.9224 43.5152 32.0613 43.5152 32.2001V36.3075C43.5152 36.8397 43.0891 37.2794 42.5733 37.2794H30.6552C30.1394 37.2794 29.7134 36.8397 29.7134 36.3075V32.5241C29.803 32.4431 29.9488 32.3737 30.016 32.3737C30.2963 32.3737 30.487 32.4893 30.7673 32.6514C31.0924 32.8365 31.4848 33.0678 32.0343 33.0794C32.7742 33.1026 33.4806 32.8249 34.0187 32.2812C34.568 31.7257 34.8933 30.9505 34.8933 30.1521C34.8933 29.3539 34.5793 28.5787 34.0187 28.0232C33.4806 27.4795 32.7742 27.2018 32.0343 27.225C31.4961 27.248 31.0924 27.4679 30.7673 27.653C30.487 27.8151 30.2852 27.9307 30.016 27.9307C29.9488 27.9307 29.803 27.8613 29.7134 27.7803V24.02C29.7134 23.4877 30.1394 23.0481 30.6552 23.0481H36.3956C36.5301 23.0481 36.6535 23.0134 36.7655 22.9324C37.2589 22.6084 37.6065 21.9489 37.6065 21.3704C37.5952 20.7341 37.3598 20.2944 37.1693 19.9357C37.0122 19.6465 36.9226 19.4844 36.9226 19.2647C36.9114 18.8828 37.0459 18.5125 37.315 18.2349C37.5952 17.934 37.9989 17.7605 38.4025 17.7605C38.8061 17.7605 39.2097 17.934 39.4901 18.2349C39.7591 18.5241 39.8937 18.8828 39.8825 19.2647C39.8712 19.4729 39.7927 19.6465 39.6358 19.9357C39.4453 20.2944 39.1986 20.7341 39.1986 21.3704C39.1874 21.9489 39.5461 22.6084 40.0394 22.9324C40.1516 23.0018 40.2749 23.0481 40.4094 23.0481H42.5958C43.1115 23.0481 43.5375 23.4877 43.5375 24.02V28.1274C43.5375 28.2663 43.5824 28.405 43.6609 28.5208C43.986 29.0067 44.6139 29.3423 45.152 29.3423C45.7687 29.3307 46.1948 29.0877 46.5422 28.8911C46.8226 28.729 46.9796 28.6365 47.1926 28.6365C47.5626 28.6249 47.9213 28.7638 48.1905 29.0415C48.482 29.3307 48.6502 29.7473 48.6502 30.1637C48.6277 30.5803 48.4595 30.9968 48.168 31.2861Z" fill="#FDC06A"/>
</g>
</g>
<defs>
<clipPath id="clip0_537_241">
<rect width="54.4773" height="38.25" fill="white" transform="translate(1.14404 0.454834)"/>
</clipPath>
</defs>
</svg>
