<svg width="57" height="39" viewBox="0 0 57 39" fill="none" xmlns="http://www.w3.org/2000/svg">
<g clip-path="url(#clip0_537_252)">
<mask id="mask0_537_252" style="mask-type:alpha" maskUnits="userSpaceOnUse" x="9" y="2" width="39" height="37">
<path d="M47.6668 2.47437H9.5354V38.1458H47.6668V2.47437Z" fill="white"/>
</mask>
<g mask="url(#mask0_537_252)">
<path d="M10.0514 24.1313C9.81942 23.229 9.67667 22.2897 9.58745 21.3137C9.51608 20.3377 9.49823 19.3248 9.56961 18.2751C9.64098 17.2254 9.74804 16.1573 9.90863 15.126C10.0692 14.0763 10.2655 13.0818 10.4975 12.1242C10.7294 11.1666 10.9792 10.2827 11.2826 9.49077C11.5681 8.68047 11.9071 7.96226 12.264 7.33612C12.6208 6.70999 12.9956 6.17593 13.4238 5.69712C13.8342 5.21831 14.2803 4.81316 14.7621 4.46326C15.7078 3.76346 16.7784 3.28464 17.956 3.02683C19.1337 2.75058 20.4541 2.6401 21.9173 2.60327C23.4518 2.45594 25.0756 2.43752 26.735 2.56643C28.1625 2.60327 29.59 2.769 30.964 3.06366C32.1237 3.30306 33.3193 3.59772 34.5148 3.9292C35.7102 4.26068 36.9058 4.64741 38.0834 5.08939C39.2433 5.53137 40.3674 6.06543 41.4024 6.65474C42.4373 7.26246 43.3652 7.96226 44.186 8.75414C45.0068 9.54601 45.7026 10.4484 46.2558 11.4613C46.8089 12.4741 47.2014 13.5975 47.4334 14.8497C47.6118 15.8626 47.701 16.9123 47.6654 17.9988C47.6476 19.0854 47.5226 20.1903 47.2906 21.3321C47.0766 22.4555 46.7733 23.5973 46.3806 24.7391C46.006 25.8808 45.5421 27.0042 45.0246 28.0908C44.3465 29.5272 43.5793 30.8715 42.7941 32.0501C41.7592 33.6154 40.6529 34.923 39.5109 35.9726C38.476 36.9303 37.4233 37.6116 36.3169 37.98C35.2285 38.2563 34.0152 38.201 32.659 37.8327C31.981 37.6485 31.2852 37.3722 30.5713 37.0776C29.8576 36.7645 29.1261 36.4146 28.4124 36.0463C27.6985 35.678 26.9848 35.3097 26.3068 34.923C25.6109 34.5547 24.9506 34.1864 24.2905 33.8548C23.6481 33.5418 23.0057 33.2471 22.3456 32.9709C21.6853 32.7131 21.0252 32.4921 20.3292 32.3079C19.6333 32.1606 18.9196 32.0318 18.2058 31.8659C17.4921 31.7002 16.7605 31.4976 16.0468 31.2399C15.333 30.9636 14.655 30.6321 14.0126 30.1901C13.3881 29.7481 12.8171 29.2141 12.2997 28.6064C11.7822 27.9986 11.3361 27.3357 10.9614 26.599C10.5867 25.844 10.2833 25.0152 10.0514 24.1313Z" fill="#87CC94" fill-opacity="0.3"/>
</g>
<mask id="mask1_537_252" style="mask-type:alpha" maskUnits="userSpaceOnUse" x="9" y="1" width="38" height="36">
<path d="M46.4369 1.24585H9.5354V36.9172H46.4369V1.24585Z" fill="white"/>
</mask>
<g mask="url(#mask1_537_252)">
<path d="M19.616 16.6919H36.3523C36.5434 16.6919 36.7273 16.6098 36.8571 16.4708C36.9869 16.328 37.0482 16.139 37.0265 15.9499C36.9977 15.7039 36.3307 10.0927 32.1592 8.46964C31.5824 5.51962 30.4611 3.55413 28.4781 1.46022C28.3482 1.32467 28.1716 1.24976 27.9842 1.24976C27.7967 1.24976 27.62 1.32467 27.4902 1.46022C25.5073 3.55056 24.3896 5.51606 23.8091 8.46608C19.6376 10.0891 18.9706 15.7039 18.9418 15.9464C18.9201 16.1354 18.9814 16.3245 19.1112 16.4672C19.241 16.6098 19.4249 16.6919 19.616 16.6919ZM35.5484 15.3506H32.6892C32.6748 13.296 32.5919 11.5766 32.4116 10.0891C34.4631 11.3662 35.2707 14.0486 35.5484 15.3506ZM27.9842 2.91561C30.5476 5.83353 31.2903 8.648 31.3335 15.3542H24.6347C24.6815 8.648 25.4207 5.83353 27.9842 2.91561ZM23.5566 10.0927C23.3764 11.5766 23.2935 13.296 23.2791 15.3542H20.42C20.7012 14.0486 21.5088 11.3662 23.5566 10.0927Z" fill="#87CC94"/>
<path d="M27.9847 11.5223C28.3597 11.5223 28.6626 11.2227 28.6626 10.8517V8.4653C28.6626 8.09432 28.3597 7.79468 27.9847 7.79468C27.6097 7.79468 27.3069 8.09432 27.3069 8.4653V10.8517C27.3106 11.2227 27.6134 11.5223 27.9847 11.5223Z" fill="#87CC94"/>
<path d="M40.8051 26.7969C40.6645 26.7969 40.5203 26.804 40.3762 26.8147C39.7344 25.3129 38.2345 24.3071 36.5507 24.3071C35.4692 24.3071 34.4488 24.7173 33.6809 25.445C31.7483 24.439 31.2977 21.6067 31.2075 19.9374L31.2039 19.8552C31.1823 19.4843 30.8614 19.206 30.4864 19.2275C30.1115 19.2489 29.8303 19.5663 29.8519 19.9374L29.8555 20.0122C30.0575 23.6542 31.3951 26.0941 33.6267 26.8825C33.8972 26.9788 34.2 26.8932 34.3803 26.6757C34.914 26.0228 35.7071 25.6519 36.5544 25.6519C37.827 25.6519 38.9411 26.5044 39.2657 27.7244C39.3558 28.0632 39.6947 28.2773 40.0408 28.2131C40.2968 28.1667 40.5564 28.1452 40.8087 28.1452C43.1667 28.1452 45.0848 30.043 45.0848 32.3759C45.0848 33.6208 44.544 34.7802 43.5921 35.5863H12.3837C11.4318 34.7802 10.891 33.6208 10.891 32.3759C10.891 30.043 12.8091 28.1452 15.1671 28.1452C15.4194 28.1452 15.679 28.1702 15.935 28.2131C16.2847 28.2773 16.62 28.0632 16.7102 27.7244C17.0347 26.5044 18.1487 25.6519 19.4214 25.6519C20.2687 25.6519 21.062 26.0264 21.5955 26.6757C21.7758 26.8968 22.0786 26.9788 22.3491 26.8825C24.5808 26.0941 25.9184 23.6542 26.1203 20.0122L26.1239 19.9374C26.1456 19.5663 25.8608 19.2489 25.4894 19.2275C25.118 19.206 24.7935 19.4878 24.7719 19.8552L24.7683 19.9374C24.6746 21.6067 24.2275 24.439 22.295 25.445C21.527 24.7173 20.5067 24.3071 19.4251 24.3071C17.7413 24.3071 16.2415 25.3129 15.5997 26.8147C15.4555 26.804 15.3149 26.7969 15.1707 26.7969C12.0592 26.7969 9.5354 29.2939 9.5354 32.3652C9.5354 34.1025 10.3358 35.7112 11.7275 36.7778C11.8465 36.8669 11.9907 36.9169 12.1421 36.9169H43.8302C43.9816 36.9169 44.1258 36.8669 44.2447 36.7778C45.6401 35.7148 46.4368 34.1059 46.4368 32.3652C46.4368 29.2939 43.9095 26.7969 40.8051 26.7969Z" fill="#87CC94"/>
</g>
</g>
<defs>
<clipPath id="clip0_537_252">
<rect width="39.375" height="38.25" fill="white" transform="translate(8.69507 0.454834)"/>
</clipPath>
</defs>
</svg>
