<svg width="40" height="41" viewBox="0 0 40 41" fill="none" xmlns="http://www.w3.org/2000/svg">
<g clip-path="url(#clip0_624_3870)">
<path d="M20 0.765625C8.95437 0.765625 0 9.72016 0 20.7656C0 31.8119 8.95453 40.7656 20 40.7656C31.0464 40.7656 40 31.8119 40 20.7656C40 9.72094 31.0464 0.766719 19.9997 0.766719L19.9998 0.765781L20 0.765625ZM29.1717 29.6116C28.8134 30.1991 28.0444 30.3853 27.4569 30.0247C22.7611 27.1564 16.8498 26.5067 9.88813 28.0973C9.56575 28.1707 9.22743 28.113 8.94756 27.937C8.66768 27.761 8.46916 27.4811 8.39563 27.1588C8.35898 26.9992 8.35418 26.8339 8.38148 26.6725C8.40879 26.5111 8.46767 26.3566 8.55475 26.218C8.64183 26.0793 8.75541 25.9592 8.88897 25.8645C9.02254 25.7698 9.17347 25.7024 9.33313 25.6661C16.9519 23.9255 23.4867 24.6748 28.7586 27.8967C29.3461 28.2573 29.5323 29.0241 29.1717 29.6116ZM31.6197 24.1658C31.1681 24.8994 30.2081 25.1311 29.475 24.6797C24.0991 21.3753 15.9042 20.4183 9.54562 22.3484C8.72094 22.5975 7.85 22.1328 7.59969 21.3095C7.35125 20.4848 7.81625 19.6155 8.63953 19.3648C15.9028 17.1608 24.9325 18.2284 31.1063 22.0222C31.8394 22.4738 32.0711 23.4337 31.6197 24.1659V24.1658ZM31.8298 18.495C25.3839 14.6663 14.7491 14.3141 8.59484 16.1822C7.60656 16.4819 6.56141 15.9239 6.26203 14.9356C5.9625 13.9469 6.51984 12.9025 7.50891 12.602C14.5734 10.4573 26.3178 10.8719 33.7389 15.2775C34.6298 15.805 34.9211 16.9531 34.3933 17.8408C33.868 18.7298 32.7167 19.0228 31.8308 18.495H31.8298Z" fill="#1ED760"/>
</g>
<defs>
<clipPath id="clip0_624_3870">
<rect width="40" height="40" fill="white" transform="translate(0 0.765625)"/>
</clipPath>
</defs>
</svg>
