<svg width="55" height="54" viewBox="0 0 55 54" fill="none" xmlns="http://www.w3.org/2000/svg">
<g clip-path="url(#clip0_610_10900)">
<path d="M51.125 47.25C51.125 47.25 54.5 47.25 54.5 43.875C54.5 40.5 51.125 30.375 37.625 30.375C24.125 30.375 20.75 40.5 20.75 43.875C20.75 47.25 24.125 47.25 24.125 47.25H51.125ZM24.1992 43.875C24.1743 43.8716 24.1495 43.8671 24.125 43.8615C24.1284 42.9705 24.6886 40.3853 26.69 38.0565C28.553 35.8729 31.8267 33.75 37.625 33.75C43.4199 33.75 46.6936 35.8762 48.56 38.0565C50.5614 40.3853 51.1183 42.9739 51.125 43.8615L51.098 43.8683C51.0823 43.8709 51.0666 43.8732 51.0508 43.875H24.1992ZM37.625 23.625C39.4152 23.625 41.1321 22.9138 42.398 21.648C43.6638 20.3821 44.375 18.6652 44.375 16.875C44.375 15.0848 43.6638 13.3679 42.398 12.102C41.1321 10.8362 39.4152 10.125 37.625 10.125C35.8348 10.125 34.1179 10.8362 32.852 12.102C31.5862 13.3679 30.875 15.0848 30.875 16.875C30.875 18.6652 31.5862 20.3821 32.852 21.648C34.1179 22.9138 35.8348 23.625 37.625 23.625ZM47.75 16.875C47.75 18.2046 47.4881 19.5212 46.9793 20.7497C46.4705 21.9781 45.7247 23.0943 44.7845 24.0345C43.8443 24.9746 42.7281 25.7205 41.4997 26.2293C40.2712 26.7381 38.9546 27 37.625 27C36.2954 27 34.9788 26.7381 33.7503 26.2293C32.5219 25.7205 31.4057 24.9746 30.4655 24.0345C29.5253 23.0943 28.7795 21.9781 28.2707 20.7497C27.7619 19.5212 27.5 18.2046 27.5 16.875C27.5 14.1897 28.5667 11.6143 30.4655 9.71554C32.3643 7.81674 34.9397 6.75 37.625 6.75C40.3103 6.75 42.8857 7.81674 44.7845 9.71554C46.6833 11.6143 47.75 14.1897 47.75 16.875ZM23.909 31.32C22.5589 30.8949 21.1673 30.6154 19.7577 30.4864C18.9657 30.4111 18.1706 30.3739 17.375 30.375C3.875 30.375 0.5 40.5 0.5 43.875C0.5 46.1261 1.62388 47.25 3.875 47.25H18.104C17.6037 46.1964 17.3542 45.0412 17.375 43.875C17.375 40.4663 18.6474 36.9832 21.0538 34.074C21.8739 33.0817 22.829 32.1536 23.909 31.32ZM17.105 33.75C15.1075 36.7513 14.0285 40.2699 14 43.875H3.875C3.875 42.9975 4.4285 40.3988 6.44 38.0565C8.27938 35.91 11.4755 33.8175 17.105 33.7534V33.75ZM5.5625 18.5625C5.5625 15.8772 6.62924 13.3018 8.52804 11.403C10.4269 9.50424 13.0022 8.4375 15.6875 8.4375C18.3728 8.4375 20.9482 9.50424 22.847 11.403C24.7458 13.3018 25.8125 15.8772 25.8125 18.5625C25.8125 21.2478 24.7458 23.8232 22.847 25.722C20.9482 27.6208 18.3728 28.6875 15.6875 28.6875C13.0022 28.6875 10.4269 27.6208 8.52804 25.722C6.62924 23.8232 5.5625 21.2478 5.5625 18.5625ZM15.6875 11.8125C13.8973 11.8125 12.1804 12.5237 10.9145 13.7895C9.64866 15.0554 8.9375 16.7723 8.9375 18.5625C8.9375 20.3527 9.64866 22.0696 10.9145 23.3355C12.1804 24.6013 13.8973 25.3125 15.6875 25.3125C17.4777 25.3125 19.1946 24.6013 20.4605 23.3355C21.7263 22.0696 22.4375 20.3527 22.4375 18.5625C22.4375 16.7723 21.7263 15.0554 20.4605 13.7895C19.1946 12.5237 17.4777 11.8125 15.6875 11.8125Z" fill="#F97316"/>
</g>
<defs>
<clipPath id="clip0_610_10900">
<rect width="54" height="54" fill="white" transform="translate(0.5)"/>
</clipPath>
</defs>
</svg>
