<svg width="57" height="41" viewBox="0 0 57 41" fill="none" xmlns="http://www.w3.org/2000/svg">
<path d="M10.5473 25.3019C10.3391 24.3539 10.2109 23.367 10.1308 22.3415C10.0668 21.316 10.0508 20.2517 10.1148 19.1488C10.1789 18.0458 10.275 16.9236 10.4191 15.84C10.5633 14.7564 10.7395 13.6922 10.9477 12.7053C11.1559 11.7185 11.3802 10.7704 11.6525 9.93833C11.9087 9.08694 12.2131 8.33231 12.5334 7.67441C12.8538 7.01652 13.1901 6.45538 13.5745 5.9523C13.9429 5.4492 14.3434 5.02351 14.7758 4.65586C15.6247 3.93992 16.5858 3.43683 17.6589 3.14659C18.716 2.85634 19.9013 2.74024 21.2148 2.70154C22.5922 2.54675 24.0497 2.5274 25.5393 2.66284C26.8207 2.70154 28.1021 2.87569 29.3355 3.18529C30.3765 3.43683 31.4497 3.74643 32.5229 4.09472C33.596 4.44302 34.6691 4.84936 35.7263 5.31375C36.7674 5.77815 37.7765 6.33929 38.7055 6.95848C39.6344 7.59701 40.4674 8.33231 41.2041 9.16435C41.9409 9.99638 42.5656 10.9445 43.0622 12.0087C43.5587 13.073 43.9111 14.2533 44.1193 15.5691C44.2794 16.6333 44.3595 17.7363 44.3275 18.8779C44.3115 20.0195 44.1994 21.1806 43.9911 22.3802C43.799 23.5605 43.5266 24.7602 43.1743 25.9598C42.8379 27.1596 42.4214 28.3399 41.957 29.4816C41.3484 30.9908 40.6595 32.4033 39.9549 33.6418C39.0258 35.2864 38.0327 36.6602 37.0076 37.7632C36.0787 38.7693 35.1336 39.4854 34.1405 39.8724C33.1635 40.1626 32.0744 40.1045 30.857 39.7175C30.2484 39.5241 29.6238 39.2338 28.983 38.9242C28.3424 38.5952 27.6857 38.2276 27.0449 37.8406C26.4043 37.4536 25.7636 37.0667 25.155 36.6602C24.5303 36.2732 23.9376 35.8863 23.345 35.538C22.7684 35.209 22.1918 34.8994 21.5991 34.6092C21.0065 34.3383 20.4139 34.1061 19.7892 33.9126C19.1645 33.7578 18.5238 33.6224 17.8832 33.4482C17.2425 33.2741 16.5858 33.0612 15.9451 32.7903C15.3044 32.5 14.6957 32.1518 14.1191 31.6874C13.5585 31.223 13.046 30.6619 12.5815 30.0233C12.117 29.3848 11.7165 28.6882 11.3802 27.9142C11.0278 27.1016 10.7555 26.2501 10.5473 25.3019Z" fill="#22518B" fill-opacity="0.2"/>
<mask id="mask0_537_200" style="mask-type:alpha" maskUnits="userSpaceOnUse" x="13" y="2" width="35" height="35">
<path d="M47.2581 2.57227H13.8008V36.0295H47.2581V2.57227Z" fill="white"/>
</mask>
<g mask="url(#mask0_537_200)">
</g>
<g clip-path="url(#clip0_537_200)">
<path d="M46.7576 35.1973C46.7576 35.1973 49.2576 35.1973 49.2576 32.6973C49.2576 30.1973 46.7576 22.6973 36.7576 22.6973C26.7576 22.6973 24.2576 30.1973 24.2576 32.6973C24.2576 35.1973 26.7576 35.1973 26.7576 35.1973H46.7576ZM26.8126 32.6973C26.7941 32.6947 26.7758 32.6914 26.7576 32.6873C26.7601 32.0273 27.1751 30.1123 28.6576 28.3873C30.0376 26.7698 32.4626 25.1973 36.7576 25.1973C41.0501 25.1973 43.4751 26.7723 44.8576 28.3873C46.3401 30.1123 46.7526 32.0298 46.7576 32.6873L46.7376 32.6923C46.7259 32.6942 46.7143 32.6959 46.7026 32.6973H26.8126V32.6973ZM36.7576 17.6973C38.0837 17.6973 39.3554 17.1705 40.2931 16.2328C41.2308 15.2951 41.7576 14.0233 41.7576 12.6973C41.7576 11.3712 41.2308 10.0994 40.2931 9.16173C39.3554 8.22405 38.0837 7.69727 36.7576 7.69727C35.4315 7.69727 34.1597 8.22405 33.222 9.16173C32.2844 10.0994 31.7576 11.3712 31.7576 12.6973C31.7576 14.0233 32.2844 15.2951 33.222 16.2328C34.1597 17.1705 35.4315 17.6973 36.7576 17.6973ZM44.2576 12.6973C44.2576 13.6822 44.0636 14.6574 43.6867 15.5674C43.3098 16.4773 42.7573 17.3041 42.0609 18.0006C41.3644 18.697 40.5376 19.2495 39.6277 19.6264C38.7178 20.0033 37.7425 20.1973 36.7576 20.1973C35.7727 20.1973 34.7974 20.0033 33.8874 19.6264C32.9775 19.2495 32.1507 18.697 31.4543 18.0006C30.7578 17.3041 30.2054 16.4773 29.8285 15.5674C29.4516 14.6574 29.2576 13.6822 29.2576 12.6973C29.2576 10.7081 30.0477 8.80049 31.4543 7.39397C32.8608 5.98744 34.7684 5.19727 36.7576 5.19727C38.7467 5.19727 40.6543 5.98744 42.0609 7.39397C43.4674 8.80049 44.2576 10.7081 44.2576 12.6973V12.6973ZM26.5976 23.3973C25.5975 23.0824 24.5667 22.8754 23.5226 22.7798C22.9359 22.724 22.3469 22.6964 21.7576 22.6973C11.7576 22.6973 9.25757 30.1973 9.25757 32.6973C9.25757 34.3648 10.0901 35.1973 11.7576 35.1973H22.2976C21.927 34.4168 21.7421 33.5611 21.7576 32.6973C21.7576 30.1723 22.7001 27.5923 24.4826 25.4373C25.0901 24.7023 25.7976 24.0148 26.5976 23.3973ZM21.5576 25.1973C20.078 27.4204 19.2787 30.0268 19.2576 32.6973H11.7576C11.7576 32.0473 12.1676 30.1223 13.6576 28.3873C15.0201 26.7973 17.3876 25.2473 21.5576 25.1998V25.1973ZM13.0076 13.9473C13.0076 11.9581 13.7977 10.0505 15.2043 8.64397C16.6108 7.23744 18.5184 6.44727 20.5076 6.44727C22.4967 6.44727 24.4043 7.23744 25.8109 8.64397C27.2174 10.0505 28.0076 11.9581 28.0076 13.9473C28.0076 15.9364 27.2174 17.844 25.8109 19.2506C24.4043 20.6571 22.4967 21.4473 20.5076 21.4473C18.5184 21.4473 16.6108 20.6571 15.2043 19.2506C13.7977 17.844 13.0076 15.9364 13.0076 13.9473V13.9473ZM20.5076 8.94727C19.1815 8.94727 17.9097 9.47405 16.972 10.4117C16.0344 11.3494 15.5076 12.6212 15.5076 13.9473C15.5076 15.2733 16.0344 16.5451 16.972 17.4828C17.9097 18.4205 19.1815 18.9473 20.5076 18.9473C21.8337 18.9473 23.1054 18.4205 24.0431 17.4828C24.9808 16.5451 25.5076 15.2733 25.5076 13.9473C25.5076 12.6212 24.9808 11.3494 24.0431 10.4117C23.1054 9.47405 21.8337 8.94727 20.5076 8.94727Z" fill="#22518B"/>
</g>
<defs>
<clipPath id="clip0_537_200">
<rect width="40" height="40" fill="white" transform="translate(9.25757 0.197266)"/>
</clipPath>
</defs>
</svg>
