<svg width="55" height="54" viewBox="0 0 55 54" fill="none" xmlns="http://www.w3.org/2000/svg">
<g clip-path="url(#clip0_610_10891)">
<path d="M39.866 32.3612C39.1893 32.0186 35.8936 30.4104 35.2777 30.1809C34.6617 29.9616 34.2146 29.8468 33.7657 30.5235C33.3269 31.1833 32.0343 32.6936 31.6394 33.1341C31.2446 33.5745 30.8564 33.6082 30.1899 33.3096C29.5132 32.967 27.3515 32.2633 24.7848 29.9616C22.7801 28.1779 21.4452 25.9807 21.0487 25.3041C20.6538 24.6358 21.0048 24.2578 21.3389 23.9237C21.6461 23.6166 22.0156 23.1508 22.3582 22.7458C22.6839 22.3408 22.7885 22.0691 23.0264 21.6304C23.2458 21.1562 23.1327 20.7866 22.9657 20.4525C22.7986 20.1184 21.4537 16.8058 20.8918 15.4862C20.3551 14.1767 19.7932 14.3438 19.3797 14.3438C18.9933 14.3083 18.5444 14.3083 18.0972 14.3083C17.6501 14.3083 16.9194 14.4754 16.3034 15.1166C15.6875 15.7933 13.9477 17.4099 13.9477 20.6803C13.9477 23.9591 16.3558 27.1316 16.6899 27.6058C17.0324 28.0446 21.4267 34.7946 28.1682 37.6954C29.7764 38.3721 31.0252 38.7771 32.0006 39.1112C33.6087 39.6208 35.0769 39.5499 36.2362 39.3829C37.5187 39.1719 40.2086 37.7561 40.7722 36.1749C41.3442 34.5836 41.3442 33.2657 41.1772 32.967C41.0101 32.6599 40.5714 32.4928 39.8947 32.1941L39.866 32.3612ZM27.6401 48.9375H27.6046C23.6137 48.9375 19.6683 47.8558 16.2224 45.8342L15.4141 45.3516L6.97662 47.5487L9.24463 39.339L8.69956 38.4953C6.47116 34.9521 5.28895 30.8515 5.28912 26.6659C5.28912 14.4146 15.3179 4.42125 27.6569 4.42125C33.6341 4.42125 39.2416 6.75 43.4604 10.9688C45.5415 13.0251 47.1923 15.4754 48.3165 18.1765C49.4406 20.8776 50.0156 23.7756 50.0079 26.7013C49.991 38.9441 39.9706 48.9375 27.6485 48.9375H27.6401ZM46.6683 7.76081C41.5349 2.80294 34.7849 0 27.6046 0C12.7951 0 0.73625 12.0066 0.727813 26.7621C0.727813 31.4736 1.958 36.0703 4.31375 40.1389L0.5 54L14.756 50.2824C18.7053 52.4117 23.1196 53.5316 27.6063 53.5427H27.6148C42.4327 53.5427 54.4916 41.5361 54.5 26.7705C54.5 19.6256 51.7139 12.9009 46.6346 7.84688L46.6683 7.76081Z" fill="#F97316"/>
</g>
<defs>
<clipPath id="clip0_610_10891">
<rect width="54" height="54" fill="white" transform="translate(0.5)"/>
</clipPath>
</defs>
</svg>
