<svg width="57" height="41" viewBox="0 0 57 41" fill="none" xmlns="http://www.w3.org/2000/svg">
<g clip-path="url(#clip0_624_4144)">
<path d="M55.6335 6.84826C55.3072 5.64239 54.6707 4.54303 53.7873 3.65966C52.904 2.77629 51.8047 2.13973 50.5988 1.81338C46.1841 0.609375 28.4166 0.609375 28.4166 0.609375C28.4166 0.609375 10.6481 0.645819 6.23346 1.84982C5.02758 2.1762 3.92823 2.81279 3.04489 3.6962C2.16156 4.57961 1.52507 5.67901 1.1988 6.88493C-0.136536 14.7289 -0.654536 26.6814 1.23546 34.2116C1.56177 35.4175 2.19828 36.5168 3.08161 37.4002C3.96494 38.2836 5.06427 38.9201 6.27013 39.2465C10.6848 40.4505 28.4528 40.4505 28.4528 40.4505C28.4528 40.4505 46.2206 40.4505 50.635 39.2465C51.8409 38.9202 52.9403 38.2836 53.8237 37.4002C54.707 36.5169 55.3436 35.4175 55.6699 34.2116C57.0784 26.3565 57.5124 14.4116 55.6335 6.84849V6.84826Z" fill="#FF0000"/>
<path d="M22.7607 29.0673L37.5003 20.53L22.7607 11.9927V29.0673Z" fill="white"/>
</g>
<defs>
<clipPath id="clip0_624_4144">
<rect width="56.89" height="40" fill="white" transform="translate(0 0.609375)"/>
</clipPath>
</defs>
</svg>
